<svg width="50" height="58" viewBox="0 0 50 58" fill="none" xmlns="http://www.w3.org/2000/svg">
<path d="M0.859724 18.7021L4.63173 20.8885L1.73019 21.6734C0.815084 21.92 0.268255 22.8731 0.51377 23.7925L0.960161 25.4631C1.20568 26.3826 2.15426 26.932 3.06936 26.6853L10.9705 24.5549L18.1016 28.7035L10.9816 32.8409L3.08052 30.7105C2.16542 30.4639 1.21684 31.0133 0.971322 31.9327L0.524931 33.6033C0.279415 34.5227 0.826244 35.4758 1.74135 35.7225L4.64289 36.5073L0.870881 38.6938C0.0450573 39.1759 -0.233935 40.2299 0.234776 41.0596L1.96454 44.0645C2.44441 44.8942 3.49343 45.1745 4.31925 44.7036L8.09126 42.5172L7.31007 45.4324C7.06456 46.3518 7.61139 47.3049 8.52649 47.5515L10.1893 48C11.1044 48.2467 12.053 47.6973 12.2985 46.7779L14.4189 38.8395L21.4272 34.7806L21.4272 43.4702L15.4344 49.4913C14.7425 50.1865 14.7425 51.3301 15.4344 52.0253L16.6954 53.2923C17.3874 53.9874 18.5257 53.9874 19.2176 53.2923L21.4272 51.0834L21.4272 55.6132C21.4272 56.5999 22.2307 57.4072 23.2128 57.4072L26.7839 57.4072C27.7659 57.4072 28.5694 56.5999 28.5694 55.6132L28.5694 51.0834L30.7679 53.2923C31.4598 53.9874 32.5981 53.9874 33.29 53.2923L34.5622 52.0253C35.2653 51.3301 35.2653 50.1865 34.5622 49.4913L28.5694 43.4702L28.5694 34.7806L35.5778 38.8395L37.6981 46.7779C37.9437 47.6973 38.8922 48.2467 39.8073 48L41.4701 47.5515C42.3853 47.3049 42.9321 46.3518 42.6866 45.4324L41.9054 42.5172L45.6774 44.7036C46.5032 45.1857 47.5522 44.8942 48.0321 44.0645L49.7619 41.0708C50.2417 40.2411 49.9516 39.1871 49.1258 38.705L45.3538 36.5186L48.2553 35.7337C49.1816 35.487 49.7284 34.534 49.4829 33.6033L49.0365 31.9327C48.791 31.0133 47.8424 30.4639 46.9273 30.7105L39.0262 32.8409L31.9062 28.7035L39.0262 24.5662L46.9273 26.6965C47.8424 26.9432 48.791 26.3938 49.0365 25.4744L49.4829 23.8037C49.7284 22.8843 49.1816 21.9312 48.2665 21.6846L45.3649 20.8997L49.1369 18.7021C49.9627 18.2199 50.2417 17.166 49.773 16.3363L48.0433 13.3313C47.5634 12.5016 46.5144 12.2213 45.6885 12.6922L41.9165 14.8787L42.6977 11.9634C42.9432 11.044 42.3964 10.091 41.4813 9.84429L39.8185 9.3958C38.9034 9.14912 37.9548 9.69853 37.7093 10.6179L35.5889 18.5563L28.5806 22.6152L28.5806 13.9256L34.5734 7.90455C35.2765 7.20938 35.2765 6.06572 34.5734 5.37055L33.3124 4.10355C32.6204 3.40839 31.4822 3.40839 30.7902 4.10355L28.5918 6.31239L28.5918 1.7938C28.5918 0.807112 27.7883 -0.000179759 26.8062 -0.00017978L23.2351 -0.000179855C22.253 -0.000179876 21.4495 0.807112 21.4495 1.7938L21.4495 6.3236L19.251 4.11477C18.5591 3.4196 17.4208 3.4196 16.7289 4.11477L15.4679 5.38176C14.776 6.07693 14.776 7.2206 15.4679 7.91576L21.4272 13.9368L21.4272 22.6264L14.4189 18.5675L12.2985 10.6292C12.053 9.70974 11.1044 9.16034 10.1893 9.40701L8.52649 9.8555C7.61139 10.1022 7.06456 11.0552 7.31007 11.9746L8.09126 14.8899L4.31926 12.7034C3.49343 12.2213 2.44441 12.5128 1.96454 13.3426L0.234776 16.3475C-0.245094 17.166 0.0339007 18.2312 0.859724 18.7021V18.7021Z" fill="white"/>
</svg>
