<svg width="1289" height="872" viewBox="0 0 1289 872" fill="none" xmlns="http://www.w3.org/2000/svg">
<g opacity="0.3">
<path d="M99.9683 169.446L95.4419 166.822L98.9238 165.881C100.022 165.585 100.678 164.441 100.383 163.338L99.8478 161.333C99.5532 160.23 98.4149 159.57 97.3168 159.866L87.8354 162.423L79.2781 157.444L87.822 152.48L97.3034 155.036C98.4015 155.332 99.5398 154.673 99.8344 153.569L100.37 151.565C100.665 150.461 100.009 149.318 98.9104 149.022L95.4285 148.08L99.9549 145.456C100.946 144.878 101.281 143.613 100.718 142.617L98.6425 139.011C98.0667 138.016 96.8079 137.679 95.8169 138.244L91.2905 140.868L92.2279 137.37C92.5225 136.266 91.8663 135.123 90.7682 134.827L88.7728 134.289C87.6747 133.993 86.5364 134.652 86.2418 135.755L83.6974 145.281L75.2874 150.152V139.724L82.4787 132.499C83.309 131.665 83.309 130.293 82.4787 129.458L80.9655 127.938C80.1352 127.104 78.7692 127.104 77.9389 127.938L75.2874 130.589V125.153C75.2874 123.969 74.3232 123 73.1447 123H68.8593C67.6809 123 66.7167 123.969 66.7167 125.153V130.589L64.0785 127.938C63.2482 127.104 61.8822 127.104 61.052 127.938L59.5253 129.458C58.6816 130.293 58.6816 131.665 59.5253 132.499L66.7167 139.724V150.152L58.3067 145.281L55.7622 135.755C55.4676 134.652 54.3293 133.993 53.2312 134.289L51.2358 134.827C50.1377 135.123 49.4815 136.266 49.7761 137.37L50.7135 140.868L46.1871 138.244C45.1961 137.666 43.9373 138.016 43.3615 139.011L41.2858 142.604C40.7099 143.599 41.0581 144.864 42.0491 145.443L46.5755 148.066L43.0936 149.008C41.9821 149.304 41.3259 150.448 41.6206 151.565L42.1562 153.569C42.4508 154.673 43.5891 155.332 44.6873 155.036L54.1686 152.48L62.7125 157.444L54.1686 162.409L44.6873 159.853C43.5891 159.557 42.4508 160.216 42.1562 161.319L41.6206 163.324C41.3259 164.428 41.9821 165.571 43.0803 165.867L46.5621 166.809L42.0357 169.446C41.0447 170.025 40.7099 171.289 41.2724 172.285L43.3481 175.891C43.9239 176.887 45.1828 177.223 46.1737 176.658L50.7002 174.034L49.7627 177.533C49.4681 178.636 50.1243 179.78 51.2224 180.076L53.2178 180.614C54.3159 180.91 55.4542 180.25 55.7488 179.147L58.2933 169.621L66.7033 164.75V175.178L59.5119 182.403C58.6682 183.237 58.6682 184.61 59.5119 185.444L61.0252 186.964C61.8555 187.799 63.2214 187.799 64.0517 186.964L66.6899 184.314V189.736C66.6899 190.92 67.6541 191.889 68.8326 191.889H73.1179C74.2964 191.889 75.2606 190.92 75.2606 189.736V184.3L77.8988 186.951C78.729 187.785 80.095 187.785 80.9253 186.951L82.4386 185.431C83.2688 184.596 83.2688 183.224 82.4386 182.39L75.2874 175.164V164.737L83.6974 169.608L86.2418 179.134C86.5364 180.237 87.6747 180.896 88.7728 180.6L90.7682 180.062C91.8663 179.766 92.5225 178.622 92.2279 177.519L91.2905 174.021L95.8169 176.645C96.8079 177.223 98.0667 176.873 98.6425 175.878L100.718 172.272C101.294 171.289 100.959 170.011 99.9683 169.446V169.446Z" fill="white"/>
<path d="M231.14 279.705L227.368 277.519L230.27 276.734C231.185 276.487 231.732 275.534 231.486 274.615L231.04 272.944C230.794 272.025 229.846 271.475 228.931 271.722L221.03 273.852L213.898 269.704L221.018 265.566L228.919 267.697C229.835 267.943 230.783 267.394 231.029 266.475L231.475 264.804C231.721 263.884 231.174 262.931 230.259 262.685L227.357 261.9L231.129 259.713C231.955 259.231 232.234 258.177 231.765 257.348L230.035 254.343C229.556 253.513 228.507 253.233 227.681 253.704L223.909 255.89L224.69 252.975C224.935 252.055 224.389 251.102 223.474 250.856L221.811 250.407C220.896 250.161 219.947 250.71 219.702 251.629L217.581 259.568L210.573 263.627V254.937L216.566 248.916C217.258 248.221 217.258 247.077 216.566 246.382L215.305 245.115C214.613 244.42 213.474 244.42 212.782 245.115L210.573 247.324V242.794C210.573 241.807 209.769 241 208.787 241H205.216C204.234 241 203.431 241.807 203.431 242.794V247.324L201.232 245.115C200.54 244.42 199.402 244.42 198.71 245.115L197.438 246.382C196.735 247.077 196.735 248.221 197.438 248.916L203.431 254.937V263.627L196.422 259.568L194.302 251.629C194.056 250.71 193.108 250.161 192.193 250.407L190.53 250.856C189.615 251.102 189.068 252.055 189.313 252.975L190.095 255.89L186.323 253.704C185.497 253.221 184.448 253.513 183.968 254.343L182.238 257.336C181.758 258.166 182.048 259.22 182.874 259.702L186.646 261.889L183.745 262.674C182.818 262.92 182.272 263.873 182.517 264.804L182.964 266.475C183.209 267.394 184.158 267.943 185.073 267.697L192.974 265.566L200.094 269.704L192.974 273.841L185.073 271.711C184.158 271.464 183.209 272.013 182.964 272.933L182.517 274.604C182.272 275.523 182.818 276.476 183.734 276.723L186.635 277.508L182.863 279.705C182.037 280.187 181.758 281.241 182.227 282.071L183.957 285.076C184.437 285.906 185.486 286.186 186.311 285.715L190.083 283.529L189.302 286.444C189.057 287.363 189.604 288.316 190.519 288.563L192.181 289.011C193.097 289.258 194.045 288.709 194.291 287.789L196.411 279.851L203.419 275.792V284.482L197.427 290.503C196.724 291.198 196.724 292.342 197.427 293.037L198.688 294.304C199.38 294.999 200.518 294.999 201.21 294.304L203.408 292.095V296.613C203.408 297.6 204.212 298.407 205.194 298.407H208.765C209.747 298.407 210.55 297.6 210.55 296.613V292.084L212.749 294.292C213.441 294.988 214.579 294.988 215.271 294.292L216.532 293.025C217.224 292.33 217.224 291.187 216.532 290.491L210.573 284.47V275.781L217.581 279.84L219.702 287.778C219.947 288.697 220.896 289.247 221.811 289L223.474 288.552C224.389 288.305 224.935 287.352 224.69 286.433L223.909 283.517L227.681 285.704C228.507 286.186 229.556 285.894 230.035 285.065L231.765 282.06C232.245 281.241 231.966 280.176 231.14 279.705V279.705Z" fill="white"/>
<path d="M140.312 414.964L137.295 413.215L139.616 412.587C140.348 412.39 140.785 411.627 140.589 410.892L140.232 409.555C140.035 408.82 139.277 408.38 138.545 408.578L132.224 410.282L126.519 406.963L132.215 403.653L138.536 405.357C139.268 405.555 140.027 405.115 140.223 404.38L140.58 403.043C140.776 402.308 140.339 401.545 139.607 401.348L137.286 400.72L140.303 398.971C140.964 398.585 141.187 397.742 140.812 397.078L139.428 394.674C139.044 394.01 138.205 393.786 137.545 394.163L134.527 395.912L135.152 393.58C135.348 392.844 134.911 392.082 134.179 391.885L132.849 391.526C132.116 391.328 131.358 391.768 131.161 392.503L129.465 398.854L123.858 402.101V395.15L128.652 390.333C129.206 389.777 129.206 388.862 128.652 388.306L127.644 387.292C127.09 386.736 126.179 386.736 125.626 387.292L123.858 389.059V385.435C123.858 384.646 123.215 384 122.43 384H119.573C118.787 384 118.144 384.646 118.144 385.435V389.059L116.386 387.292C115.832 386.736 114.921 386.736 114.368 387.292L113.35 388.306C112.788 388.862 112.788 389.777 113.35 390.333L118.144 395.15V402.101L112.538 398.854L110.841 392.503C110.645 391.768 109.886 391.328 109.154 391.526L107.824 391.885C107.092 392.082 106.654 392.844 106.851 393.58L107.476 395.912L104.458 394.163C103.797 393.777 102.958 394.01 102.574 394.674L101.191 397.069C100.807 397.733 101.039 398.576 101.699 398.962L104.717 400.711L102.396 401.339C101.655 401.536 101.217 402.299 101.414 403.043L101.771 404.38C101.967 405.115 102.726 405.555 103.458 405.357L109.779 403.653L115.475 406.963L109.779 410.273L103.458 408.569C102.726 408.371 101.967 408.811 101.771 409.546L101.414 410.883C101.217 411.618 101.655 412.381 102.387 412.578L104.708 413.206L101.69 414.964C101.03 415.35 100.807 416.193 101.182 416.857L102.565 419.261C102.949 419.924 103.789 420.149 104.449 419.772L107.467 418.023L106.842 420.355C106.645 421.091 107.083 421.853 107.815 422.05L109.145 422.409C109.877 422.606 110.636 422.167 110.833 421.431L112.529 415.081L118.136 411.834V418.785L113.341 423.602C112.779 424.158 112.779 425.073 113.341 425.629L114.35 426.643C114.904 427.199 115.814 427.199 116.368 426.643L118.127 424.876V428.491C118.127 429.28 118.769 429.926 119.555 429.926H122.412C123.198 429.926 123.84 429.28 123.84 428.491V424.867L125.599 426.634C126.153 427.19 127.063 427.19 127.617 426.634L128.626 425.62C129.179 425.064 129.179 424.149 128.626 423.593L123.858 418.776V411.825L129.465 415.072L131.161 421.422C131.358 422.158 132.116 422.598 132.849 422.4L134.179 422.041C134.911 421.844 135.348 421.082 135.152 420.346L134.527 418.014L137.545 419.763C138.205 420.149 139.044 419.916 139.428 419.252L140.812 416.848C141.196 416.193 140.973 415.341 140.312 414.964V414.964Z" fill="white"/>
<path d="M303.484 435.112L301.221 433.919L302.962 433.491C303.511 433.357 303.839 432.837 303.692 432.335L303.424 431.424C303.277 430.923 302.707 430.623 302.158 430.757L297.418 431.919L293.139 429.657L297.411 427.4L302.152 428.562C302.701 428.696 303.27 428.397 303.417 427.895L303.685 426.984C303.832 426.482 303.504 425.963 302.955 425.828L301.214 425.4L303.477 424.207C303.973 423.944 304.14 423.369 303.859 422.917L302.821 421.278C302.533 420.825 301.904 420.672 301.408 420.929L299.145 422.122L299.614 420.532C299.761 420.03 299.433 419.51 298.884 419.376L297.886 419.131C297.337 418.997 296.768 419.296 296.621 419.798L295.349 424.128L291.144 426.342V421.602L294.739 418.318C295.155 417.939 295.155 417.315 294.739 416.936L293.983 416.245C293.568 415.865 292.885 415.865 292.469 416.245L291.144 417.449V414.979C291.144 414.44 290.662 414 290.072 414H287.93C287.34 414 286.858 414.44 286.858 414.979V417.449L285.539 416.245C285.124 415.865 284.441 415.865 284.026 416.245L283.263 416.936C282.841 417.315 282.841 417.939 283.263 418.318L286.858 421.602V426.342L282.653 424.128L281.381 419.798C281.234 419.296 280.665 418.997 280.116 419.131L279.118 419.376C278.569 419.51 278.241 420.03 278.388 420.532L278.857 422.122L276.594 420.929C276.098 420.666 275.469 420.825 275.181 421.278L274.143 422.911C273.855 423.363 274.029 423.938 274.525 424.201L276.788 425.394L275.047 425.822C274.491 425.956 274.163 426.476 274.31 426.984L274.578 427.895C274.725 428.397 275.295 428.696 275.844 428.562L280.584 427.4L284.856 429.657L280.584 431.913L275.844 430.751C275.295 430.617 274.725 430.916 274.578 431.418L274.31 432.329C274.163 432.831 274.491 433.351 275.04 433.485L276.781 433.913L274.518 435.112C274.022 435.375 273.855 435.95 274.136 436.402L275.174 438.041C275.462 438.494 276.091 438.647 276.587 438.39L278.85 437.197L278.381 438.788C278.234 439.289 278.562 439.809 279.111 439.943L280.109 440.188C280.658 440.323 281.227 440.023 281.374 439.521L282.647 435.191L286.852 432.977V437.717L283.256 441.001C282.834 441.381 282.834 442.004 283.256 442.384L284.013 443.075C284.428 443.454 285.111 443.454 285.526 443.075L286.845 441.87V444.335C286.845 444.873 287.327 445.313 287.916 445.313H290.059C290.648 445.313 291.13 444.873 291.13 444.335V441.864L292.449 443.069C292.865 443.448 293.548 443.448 293.963 443.069L294.719 442.378C295.134 441.998 295.134 441.375 294.719 440.995L291.144 437.711V432.971L295.349 435.185L296.621 439.515C296.768 440.017 297.337 440.316 297.886 440.182L298.884 439.937C299.433 439.803 299.761 439.283 299.614 438.781L299.145 437.191L301.408 438.384C301.904 438.647 302.533 438.488 302.821 438.035L303.859 436.396C304.147 435.95 303.98 435.369 303.484 435.112V435.112Z" fill="white"/>
<path d="M19.6561 312.075L18.1473 311.28L19.3079 310.994C19.674 310.904 19.8927 310.558 19.7945 310.224L19.6159 309.616C19.5177 309.282 19.1383 309.082 18.7723 309.172L15.6118 309.946L12.7594 308.438L15.6073 306.933L18.7678 307.708C19.1338 307.798 19.5133 307.598 19.6115 307.263L19.79 306.656C19.8882 306.322 19.6695 305.975 19.3035 305.885L18.1428 305.6L19.6516 304.805C19.982 304.63 20.0936 304.246 19.9061 303.945L19.2142 302.852C19.0222 302.55 18.6026 302.448 18.2723 302.62L16.7635 303.415L17.076 302.354C17.1742 302.02 16.9554 301.674 16.5894 301.584L15.9243 301.421C15.5582 301.331 15.1788 301.531 15.0806 301.865L14.2325 304.752L11.4291 306.228V303.068L13.8262 300.879C14.103 300.626 14.103 300.21 13.8262 299.957L13.3218 299.496C13.0451 299.244 12.5897 299.244 12.313 299.496L11.4291 300.3V298.652C11.4291 298.294 11.1077 298 10.7149 298H9.28645C8.89362 298 8.57222 298.294 8.57222 298.652V300.3L7.69283 299.496C7.41607 299.244 6.96075 299.244 6.68399 299.496L6.1751 299.957C5.89387 300.21 5.89387 300.626 6.1751 300.879L8.57222 303.068V306.228L5.76888 304.752L4.92074 301.865C4.82254 301.531 4.4431 301.331 4.07706 301.421L3.41194 301.584C3.0459 301.674 2.82717 302.02 2.92537 302.354L3.23785 303.415L1.72905 302.62C1.39872 302.444 0.979109 302.55 0.787161 302.852L0.0952545 303.941C-0.0966937 304.242 0.019368 304.626 0.349697 304.801L1.8585 305.596L0.697882 305.881C0.327378 305.971 0.108646 306.318 0.206852 306.656L0.385409 307.263C0.483615 307.598 0.863047 307.798 1.22909 307.708L4.38954 306.933L7.23751 308.438L4.38954 309.942L1.22909 309.168C0.863047 309.078 0.483615 309.278 0.385409 309.612L0.206852 310.219C0.108646 310.554 0.327378 310.9 0.693418 310.99L1.85404 311.275L0.345233 312.075C0.0149041 312.25 -0.0966937 312.633 0.0907906 312.935L0.782697 314.028C0.974645 314.329 1.39425 314.431 1.72458 314.26L3.23338 313.465L2.92091 314.525C2.8227 314.859 3.04144 315.206 3.40748 315.296L4.0726 315.459C4.43864 315.548 4.81807 315.349 4.91628 315.014L5.76442 312.128L8.56776 310.652V313.812L6.17064 316.001C5.88941 316.254 5.88941 316.67 6.17064 316.922L6.67506 317.383C6.95182 317.636 7.40714 317.636 7.6839 317.383L8.56329 316.58V318.223C8.56329 318.582 8.88469 318.875 9.27752 318.875H10.706C11.0988 318.875 11.4202 318.582 11.4202 318.223V316.576L12.2996 317.379C12.5763 317.632 13.0317 317.632 13.3084 317.379L13.8129 316.918C14.0896 316.666 14.0896 316.25 13.8129 315.997L11.4291 313.807V310.648L14.2325 312.124L15.0806 315.01C15.1788 315.345 15.5582 315.544 15.9243 315.455L16.5894 315.292C16.9554 315.202 17.1742 314.855 17.076 314.521L16.7635 313.461L18.2723 314.256C18.6026 314.431 19.0222 314.325 19.2142 314.024L19.9061 312.931C20.098 312.633 19.9864 312.246 19.6561 312.075V312.075Z" fill="white"/>
<path d="M395.13 268.479L393.768 273.53L391.957 270.411C391.387 269.426 390.112 269.089 389.123 269.659L387.325 270.695C386.335 271.265 385.993 272.535 386.563 273.519L391.487 282.016L388.893 291.57L381.886 284.602L381.901 274.783C381.903 273.645 380.971 272.716 379.829 272.717L377.754 272.719C376.612 272.72 375.677 273.65 375.676 274.787L375.667 278.394L371.961 274.701C371.146 273.893 369.838 273.897 369.022 274.698L366.076 277.637C365.263 278.45 365.264 279.753 366.066 280.564L369.772 284.258L366.15 284.257C365.008 284.258 364.074 285.188 364.072 286.326L364.069 288.392C364.067 289.53 364.998 290.458 366.14 290.457L376 290.45L382.882 297.312L372.809 300.011L363.969 294.935C362.948 294.349 361.623 294.704 361.032 295.722L359.955 297.577C359.364 298.595 359.718 299.915 360.738 300.501L363.985 302.376L358.734 303.783C357.591 304.089 356.904 305.271 357.209 306.41L358.319 310.549C358.624 311.687 359.809 312.368 360.953 312.061L366.203 310.655L364.326 313.889C363.735 314.907 364.088 316.226 365.109 316.812L366.973 317.893C367.997 318.492 369.322 318.137 369.91 317.106L375.028 308.29L385.1 305.591L382.572 314.975L374.029 319.898C373.039 320.469 372.697 321.739 373.267 322.723L374.304 324.511C374.874 325.495 376.148 325.833 377.138 325.263L380.274 323.452L378.911 328.503C378.609 329.61 379.273 330.735 380.384 331.034L384.391 332.109C385.502 332.408 386.633 331.744 386.936 330.637L388.298 325.586L390.109 328.705C390.683 329.702 391.957 330.04 392.96 329.466L394.758 328.43C395.747 327.86 396.089 326.59 395.519 325.606L390.596 317.109L393.18 307.571L400.187 314.539L400.172 324.359C400.17 325.496 401.102 326.425 402.244 326.424L404.319 326.423C405.461 326.422 406.395 325.492 406.397 324.355L406.406 320.748L410.125 324.437C410.94 325.245 412.248 325.241 413.064 324.44L416.01 321.502C416.823 320.688 416.822 319.385 416.02 318.574L412.314 314.881L415.935 314.881C417.077 314.88 418.012 313.95 418.014 312.813L418.017 310.746C418.019 309.609 417.088 308.68 415.946 308.681L406.086 308.689L399.204 301.826L409.277 299.127L418.117 304.203C419.141 304.802 420.467 304.447 421.054 303.416L422.131 301.561C422.722 300.543 422.368 299.224 421.348 298.638L418.105 296.775L423.342 295.372C424.486 295.065 425.172 293.883 424.867 292.745L423.758 288.606C423.453 287.467 422.268 286.787 421.124 287.093L415.873 288.5L417.751 285.266C418.342 284.248 417.988 282.928 416.968 282.342L415.107 281.274C414.087 280.688 412.761 281.043 412.17 282.061L407.042 290.839L396.97 293.538L399.498 284.154L408.041 279.23C409.03 278.66 409.372 277.39 408.802 276.406L407.766 274.618C407.196 273.634 405.921 273.296 404.932 273.866L401.795 275.677L403.158 270.626C403.46 269.519 402.797 268.393 401.686 268.095L397.666 267.023C396.568 266.721 395.42 267.375 395.13 268.479V268.479Z" fill="white"/>
<path d="M467.683 113.239L466.547 117.449L465.038 114.849C464.563 114.029 463.501 113.747 462.676 114.222L461.178 115.086C460.354 115.561 460.068 116.62 460.543 117.44L464.646 124.52L462.485 132.482L456.645 126.676L456.658 118.492C456.66 117.545 455.883 116.77 454.932 116.771L453.203 116.773C452.251 116.773 451.472 117.548 451.47 118.496L451.463 121.502L448.375 118.424C447.696 117.751 446.605 117.755 445.925 118.422L443.47 120.871C442.793 121.549 442.794 122.635 443.463 123.311L446.551 126.388L443.533 126.388C442.581 126.389 441.802 127.164 441.801 128.111L441.798 129.834C441.796 130.781 442.573 131.556 443.524 131.555L451.741 131.548L457.475 137.267L449.082 139.516L441.715 135.286C440.864 134.798 439.76 135.094 439.267 135.942L438.37 137.488C437.877 138.336 438.172 139.436 439.023 139.924L441.728 141.487L437.353 142.659C436.399 142.914 435.828 143.9 436.082 144.848L437.006 148.298C437.26 149.246 438.248 149.813 439.201 149.558L443.577 148.386L442.012 151.081C441.52 151.929 441.814 153.029 442.665 153.517L444.218 154.418C445.071 154.917 446.176 154.621 446.666 153.762L450.93 146.415L459.324 144.166L457.217 151.986L450.098 156.089C449.274 156.564 448.988 157.622 449.463 158.443L450.327 159.933C450.802 160.753 451.864 161.034 452.689 160.559L455.303 159.05L454.167 163.259C453.915 164.182 454.468 165.12 455.394 165.368L458.733 166.264C459.659 166.513 460.602 165.96 460.854 165.038L461.989 160.828L463.498 163.428C463.976 164.259 465.038 164.54 465.874 164.062L467.372 163.199C468.197 162.724 468.482 161.665 468.007 160.845L463.904 153.765L466.058 145.816L471.897 151.623L471.884 159.806C471.882 160.754 472.659 161.528 473.61 161.527L475.34 161.526C476.291 161.525 477.07 160.75 477.072 159.802L477.079 156.797L480.178 159.871C480.857 160.544 481.948 160.541 482.628 159.873L485.082 157.425C485.76 156.747 485.759 155.661 485.09 154.985L482.002 151.907L485.02 151.907C485.972 151.907 486.751 151.132 486.752 150.184L486.755 148.462C486.757 147.514 485.98 146.74 485.029 146.741L476.812 146.747L471.078 141.028L479.471 138.779L486.838 143.009C487.692 143.509 488.796 143.213 489.286 142.354L490.183 140.808C490.676 139.959 490.381 138.86 489.53 138.371L486.828 136.82L491.192 135.65C492.146 135.395 492.717 134.41 492.463 133.461L491.539 130.012C491.285 129.063 490.297 128.496 489.344 128.751L484.968 129.924L486.533 127.228C487.025 126.38 486.731 125.281 485.88 124.792L484.33 123.902C483.479 123.414 482.375 123.71 481.882 124.558L477.609 131.872L469.215 134.122L471.322 126.301L478.441 122.199C479.266 121.724 479.551 120.665 479.076 119.845L478.212 118.355C477.737 117.535 476.675 117.253 475.85 117.729L473.237 119.238L474.372 115.028C474.624 114.106 474.071 113.168 473.146 112.919L469.795 112.026C468.881 111.774 467.924 112.32 467.683 113.239V113.239Z" fill="white"/>
<path d="M621.841 165.964L620.932 169.332L619.725 167.252C619.345 166.596 618.495 166.371 617.836 166.751L616.637 167.442C615.977 167.822 615.749 168.669 616.129 169.325L619.411 174.989L617.682 181.359L613.011 176.714L613.021 170.167C613.022 169.409 612.401 168.789 611.64 168.79L610.257 168.791C609.495 168.792 608.872 169.412 608.871 170.17L608.865 172.574L606.395 170.112C605.851 169.574 604.979 169.577 604.435 170.111L602.471 172.07C601.929 172.612 601.93 173.481 602.465 174.021L604.935 176.484L602.521 176.483C601.759 176.484 601.136 177.104 601.135 177.862L601.133 179.24C601.132 179.998 601.753 180.617 602.514 180.617L609.087 180.612L613.675 185.187L606.96 186.986L601.066 183.602C600.386 183.211 599.502 183.448 599.108 184.127L598.39 185.363C597.996 186.042 598.232 186.922 598.913 187.312L601.077 188.562L597.577 189.5C596.814 189.705 596.357 190.493 596.56 191.252L597.299 194.011C597.503 194.77 598.293 195.224 599.055 195.019L602.556 194.082L601.304 196.238C600.91 196.916 601.146 197.796 601.826 198.187L603.069 198.907C603.752 199.307 604.635 199.07 605.027 198.383L608.439 192.505L615.154 190.706L613.468 196.962L607.773 200.244C607.113 200.624 606.885 201.471 607.265 202.127L607.956 203.319C608.336 203.975 609.186 204.2 609.846 203.82L611.937 202.613L611.028 205.981C610.826 206.719 611.269 207.469 612.009 207.668L614.681 208.385C615.421 208.584 616.176 208.141 616.377 207.403L617.286 204.036L618.493 206.115C618.876 206.78 619.725 207.005 620.394 206.623L621.592 205.932C622.252 205.552 622.48 204.705 622.1 204.049L618.818 198.385L620.541 192.026L625.212 196.671L625.202 203.218C625.201 203.976 625.821 204.595 626.583 204.595L627.966 204.594C628.727 204.593 629.351 203.973 629.352 203.215L629.358 200.81L631.837 203.27C632.38 203.808 633.253 203.806 633.797 203.272L635.761 201.313C636.302 200.77 636.302 199.902 635.767 199.361L633.296 196.899L635.711 196.899C636.472 196.898 637.095 196.278 637.096 195.52L637.099 194.142C637.1 193.384 636.479 192.765 635.718 192.766L629.144 192.771L624.557 188.196L631.271 186.396L637.165 189.781C637.848 190.18 638.732 189.943 639.123 189.256L639.841 188.019C640.235 187.341 639.999 186.461 639.319 186.07L637.157 184.829L640.649 183.893C641.411 183.689 641.868 182.901 641.665 182.142L640.926 179.382C640.722 178.623 639.932 178.17 639.17 178.374L635.669 179.312L636.921 177.156C637.315 176.477 637.079 175.598 636.399 175.207L635.159 174.495C634.478 174.104 633.594 174.341 633.2 175.019L629.782 180.871L623.067 182.67L624.752 176.414L630.447 173.132C631.107 172.752 631.335 171.905 630.955 171.249L630.264 170.057C629.884 169.401 629.035 169.176 628.375 169.556L626.284 170.763L627.192 167.396C627.394 166.658 626.952 165.907 626.211 165.708L623.531 164.994C622.799 164.793 622.034 165.229 621.841 165.964V165.964Z" fill="white"/>
<path d="M599.07 3.13835L598.504 5.6331L597.64 4.0623C597.368 3.56677 596.781 3.3844 596.334 3.65649L595.523 4.15105C595.077 4.42314 594.935 5.05045 595.207 5.54598L597.556 9.82437L596.478 14.5429L593.193 11.0006L593.088 6.12071C593.076 5.55553 592.639 5.08334 592.117 5.07085L591.167 5.04799C590.645 5.0355 590.227 5.48696 590.239 6.05214L590.277 7.84455L588.539 5.96713C588.157 5.55658 587.558 5.54368 587.194 5.93246L585.879 7.35917C585.516 7.75442 585.532 8.40195 585.908 8.81408L587.646 10.6915L585.988 10.6503C585.466 10.6378 585.049 11.0893 585.061 11.6545L585.083 12.6815C585.095 13.2466 585.532 13.7188 586.054 13.7313L590.566 13.8395L593.793 17.3282L589.214 18.555L585.112 15.9318C584.638 15.629 584.035 15.7904 583.776 16.2896L583.305 17.1993C583.046 17.6984 583.223 18.3581 583.696 18.661L585.203 19.6297L582.817 20.2692C582.297 20.4085 581.996 20.9882 582.149 21.5573L582.703 23.627C582.856 24.1962 583.406 24.5479 583.926 24.4086L586.312 23.7691L585.49 25.3551C585.231 25.8542 585.408 26.5139 585.882 26.8168L586.747 27.3752C587.222 27.6845 587.825 27.5231 588.082 27.0175L590.324 22.6943L594.902 21.4676L593.852 26.1023L589.998 28.4518C589.552 28.7239 589.41 29.3512 589.682 29.8468L590.177 30.7471C590.449 31.2427 591.036 31.425 591.482 31.153L592.897 30.2887L592.33 32.7834C592.205 33.3301 592.521 33.8969 593.033 34.0579L594.879 34.6377C595.39 34.7987 595.901 34.4818 596.026 33.9351L596.593 31.4403L597.457 33.0111C597.731 33.5131 598.318 33.6955 598.77 33.4218L599.581 32.9273C600.027 32.6552 600.169 32.0279 599.897 31.5323L597.548 27.254L598.622 22.5435L601.907 26.0858L602.012 30.9657C602.024 31.5308 602.461 32.003 602.983 32.0155L603.933 32.0384C604.455 32.0509 604.873 31.5994 604.861 31.0342L604.823 29.2418L606.567 31.1177C606.949 31.5282 607.548 31.5411 607.912 31.1523L609.227 29.7256C609.59 29.3304 609.574 28.6828 609.198 28.2707L607.46 26.3933L609.118 26.4345C609.64 26.447 610.057 25.9955 610.045 25.4303L610.023 24.4033C610.011 23.8381 609.574 23.366 609.052 23.3535L604.54 23.2453L601.313 19.7566L605.891 18.5298L609.994 21.153C610.47 21.4623 611.072 21.3008 611.329 20.7952L611.801 19.8855C612.06 19.3864 611.883 18.7267 611.41 18.4238L609.904 17.4615L612.285 16.8236C612.805 16.6843 613.105 16.1047 612.953 15.5355L612.398 13.4658C612.246 12.8967 611.696 12.545 611.176 12.6843L608.789 13.3238L609.612 11.7378C609.87 11.2387 609.694 10.5789 609.22 10.2761L608.357 9.7241C607.883 9.42124 607.28 9.5827 607.022 10.0818L604.775 14.3856L600.196 15.6124L601.247 10.9776L605.1 8.62807C605.546 8.35598 605.688 7.72866 605.416 7.23314L604.922 6.33276C604.65 5.83723 604.063 5.65486 603.616 5.92695L602.202 6.79124L602.768 4.29649C602.894 3.74982 602.577 3.18301 602.065 3.02203L600.214 2.44375C599.708 2.28119 599.19 2.59326 599.07 3.13835V3.13835Z" fill="white"/>
<path d="M553.685 309.139L553.308 310.803L552.732 309.755C552.55 309.425 552.159 309.303 551.861 309.485L551.321 309.815C551.023 309.996 550.928 310.414 551.11 310.745L552.676 313.597L551.957 316.742L549.767 314.381L549.697 311.128C549.689 310.751 549.398 310.436 549.049 310.428L548.416 310.413C548.068 310.404 547.79 310.705 547.798 311.082L547.823 312.277L546.664 311.025C546.409 310.752 546.01 310.743 545.767 311.002L544.891 311.953C544.649 312.217 544.659 312.649 544.91 312.923L546.069 314.175L544.964 314.147C544.616 314.139 544.338 314.44 544.346 314.817L544.36 315.502C544.368 315.878 544.659 316.193 545.008 316.201L548.016 316.274L550.167 318.599L547.115 319.417L544.379 317.668C544.064 317.467 543.662 317.574 543.489 317.907L543.175 318.513C543.002 318.846 543.12 319.286 543.436 319.488L544.441 320.134L542.85 320.56C542.503 320.653 542.303 321.039 542.404 321.419L542.774 322.799C542.876 323.178 543.242 323.412 543.589 323.32L545.18 322.893L544.632 323.951C544.459 324.283 544.577 324.723 544.893 324.925L545.47 325.297C545.787 325.504 546.188 325.396 546.36 325.059L547.854 322.177L550.906 321.359L550.206 324.449L547.637 326.015C547.34 326.196 547.245 326.615 547.427 326.945L547.756 327.545C547.938 327.876 548.329 327.997 548.626 327.816L549.57 327.24L549.192 328.903C549.108 329.267 549.319 329.645 549.66 329.752L550.891 330.139C551.232 330.246 551.572 330.035 551.656 329.671L552.034 328.007L552.61 329.055C552.792 329.389 553.184 329.511 553.485 329.328L554.026 328.999C554.323 328.817 554.418 328.399 554.236 328.069L552.67 325.217L553.386 322.076L555.577 324.438L555.646 327.691C555.654 328.068 555.946 328.383 556.294 328.391L556.927 328.406C557.275 328.414 557.554 328.113 557.545 327.737L557.521 326.542L558.683 327.792C558.938 328.066 559.337 328.075 559.58 327.815L560.456 326.864C560.698 326.601 560.688 326.169 560.437 325.894L559.279 324.643L560.383 324.67C560.732 324.679 561.01 324.378 561.002 324.001L560.987 323.316C560.979 322.939 560.688 322.625 560.34 322.616L557.332 322.544L555.181 320.218L558.233 319.4L560.968 321.149C561.285 321.355 561.687 321.248 561.858 320.911L562.173 320.304C562.345 319.971 562.227 319.532 561.911 319.33L560.908 318.688L562.495 318.263C562.842 318.17 563.042 317.784 562.94 317.404L562.571 316.024C562.469 315.645 562.102 315.411 561.756 315.503L560.165 315.93L560.713 314.872C560.885 314.54 560.768 314.1 560.452 313.898L559.876 313.53C559.56 313.328 559.159 313.436 558.986 313.768L557.488 316.638L554.436 317.455L555.136 314.366L557.705 312.799C558.002 312.618 558.097 312.2 557.916 311.869L557.586 311.269C557.405 310.939 557.013 310.817 556.716 310.999L555.773 311.575L556.15 309.912C556.234 309.547 556.023 309.169 555.682 309.062L554.447 308.676C554.11 308.568 553.765 308.776 553.685 309.139V309.139Z" fill="white"/>
<path d="M237.899 825.137L242.426 827.761L238.944 828.702C237.846 828.998 237.189 830.142 237.484 831.245L238.02 833.25C238.314 834.353 239.453 835.013 240.551 834.717L250.032 832.16L258.589 837.139L250.045 842.103L240.564 839.547C239.466 839.251 238.328 839.91 238.033 841.014L237.497 843.018C237.203 844.122 237.859 845.265 238.957 845.561L242.439 846.503L237.912 849.127C236.922 849.705 236.587 850.97 237.149 851.966L239.225 855.572C239.801 856.567 241.06 856.904 242.051 856.339L246.577 853.715L245.64 857.213C245.345 858.317 246.001 859.46 247.099 859.756L249.095 860.294C250.193 860.59 251.331 859.931 251.626 858.828L254.17 849.302L262.58 844.431L262.58 854.859L255.389 862.084C254.558 862.918 254.558 864.29 255.389 865.125L256.902 866.645C257.732 867.479 259.098 867.479 259.929 866.645L262.58 863.994L262.58 869.43C262.58 870.614 263.544 871.583 264.723 871.583L269.008 871.583C270.187 871.583 271.151 870.614 271.151 869.43L271.151 863.994L273.789 866.645C274.619 867.479 275.985 867.479 276.815 866.645L278.342 865.125C279.186 864.29 279.186 862.918 278.342 862.084L271.151 854.859L271.151 844.431L279.561 849.302L282.105 858.828C282.4 859.931 283.538 860.59 284.636 860.294L286.632 859.756C287.73 859.46 288.386 858.317 288.091 857.213L287.154 853.715L291.68 856.339C292.671 856.917 293.93 856.567 294.506 855.572L296.582 851.979C297.158 850.984 296.809 849.719 295.818 849.14L291.292 846.517L294.774 845.575C295.885 845.279 296.541 844.135 296.247 843.018L295.711 841.014C295.417 839.91 294.278 839.251 293.18 839.547L283.699 842.103L275.155 837.139L283.699 832.174L293.18 834.73C294.278 835.026 295.417 834.367 295.711 833.264L296.247 831.259C296.541 830.155 295.885 829.012 294.787 828.716L291.305 827.774L295.832 825.137C296.823 824.558 297.158 823.294 296.595 822.298L294.519 818.692C293.943 817.696 292.685 817.36 291.694 817.925L287.167 820.549L288.105 817.05C288.399 815.947 287.743 814.803 286.645 814.507L284.65 813.969C283.552 813.673 282.413 814.333 282.119 815.436L279.574 824.962L271.164 829.833L271.164 819.405L278.356 812.18C279.199 811.346 279.199 809.973 278.356 809.139L276.842 807.619C276.012 806.784 274.646 806.784 273.816 807.619L271.178 810.269L271.178 804.847C271.178 803.663 270.213 802.694 269.035 802.694L264.75 802.694C263.571 802.694 262.607 803.663 262.607 804.847L262.607 810.283L259.969 807.632C259.138 806.798 257.772 806.798 256.942 807.632L255.429 809.152C254.599 809.987 254.599 811.359 255.429 812.193L262.58 819.419L262.58 829.846L254.17 824.975L251.626 815.449C251.331 814.346 250.193 813.687 249.095 813.983L247.099 814.521C246.001 814.817 245.345 815.961 245.64 817.064L246.577 820.562L242.051 817.938C241.06 817.36 239.801 817.71 239.225 818.705L237.149 822.311C236.573 823.294 236.908 824.572 237.899 825.137V825.137Z" fill="white"/>
<path d="M106.727 714.878L110.499 717.064L107.597 717.849C106.682 718.096 106.135 719.049 106.381 719.968L106.827 721.639C107.073 722.558 108.021 723.108 108.937 722.861L116.838 720.731L123.969 724.879L116.849 729.017L108.948 726.886C108.033 726.64 107.084 727.189 106.839 728.108L106.392 729.779C106.147 730.699 106.693 731.652 107.609 731.898L110.51 732.683L106.738 734.87C105.912 735.352 105.633 736.406 106.102 737.235L107.832 740.24C108.312 741.07 109.361 741.35 110.186 740.879L113.958 738.693L113.177 741.608C112.932 742.528 113.479 743.481 114.394 743.727L116.056 744.176C116.972 744.422 117.92 743.873 118.166 742.954L120.286 735.015L127.294 730.956L127.294 739.646L121.302 745.667C120.61 746.362 120.61 747.506 121.302 748.201L122.563 749.468C123.255 750.163 124.393 750.163 125.085 749.468L127.294 747.259L127.294 751.789C127.294 752.776 128.098 753.583 129.08 753.583L132.651 753.583C133.633 753.583 134.437 752.776 134.437 751.789L134.437 747.259L136.635 749.468C137.327 750.163 138.465 750.163 139.157 749.468L140.429 748.201C141.133 747.506 141.133 746.362 140.429 745.667L134.437 739.646L134.437 730.956L141.445 735.015L143.565 742.954C143.811 743.873 144.759 744.422 145.675 744.176L147.337 743.727C148.252 743.481 148.799 742.528 148.554 741.608L147.773 738.693L151.545 740.879C152.37 741.362 153.419 741.07 153.899 740.24L155.629 737.247C156.109 736.417 155.819 735.363 154.993 734.881L151.221 732.694L154.122 731.909C155.049 731.663 155.596 730.71 155.35 729.779L154.904 728.108C154.658 727.189 153.71 726.64 152.794 726.886L144.893 729.017L137.773 724.879L144.893 720.742L152.794 722.872C153.71 723.119 154.658 722.57 154.904 721.65L155.35 719.979C155.596 719.06 155.049 718.107 154.134 717.86L151.232 717.075L155.004 714.878C155.83 714.396 156.109 713.342 155.64 712.512L153.91 709.507C153.431 708.677 152.382 708.397 151.556 708.868L147.784 711.054L148.565 708.139C148.81 707.22 148.264 706.267 147.348 706.02L145.686 705.572C144.771 705.325 143.822 705.874 143.576 706.794L141.456 714.732L134.448 718.791L134.448 710.101L140.441 704.08C141.144 703.385 141.144 702.242 140.441 701.546L139.18 700.279C138.488 699.584 137.349 699.584 136.657 700.279L134.459 702.488L134.459 697.97C134.459 696.983 133.655 696.176 132.673 696.176L129.102 696.176C128.12 696.176 127.317 696.983 127.317 697.97L127.317 702.499L125.118 700.291C124.426 699.595 123.288 699.595 122.596 700.291L121.335 701.558C120.643 702.253 120.643 703.396 121.335 704.092L127.294 710.113L127.294 718.802L120.286 714.743L118.166 706.805C117.92 705.886 116.972 705.336 116.056 705.583L114.394 706.031C113.479 706.278 112.932 707.231 113.177 708.15L113.958 711.066L110.186 708.879C109.361 708.397 108.312 708.689 107.832 709.518L106.102 712.523C105.622 713.342 105.901 714.407 106.727 714.878V714.878Z" fill="white"/>
<path d="M197.555 579.619L200.572 581.368L198.251 581.996C197.519 582.193 197.082 582.956 197.278 583.691L197.635 585.028C197.831 585.763 198.59 586.203 199.322 586.005L205.643 584.301L211.348 587.62L205.652 590.93L199.331 589.226C198.599 589.028 197.84 589.468 197.644 590.203L197.287 591.54C197.09 592.275 197.528 593.038 198.26 593.235L200.581 593.863L197.564 595.612C196.903 595.998 196.68 596.841 197.055 597.505L198.439 599.909C198.822 600.573 199.662 600.797 200.322 600.42L203.34 598.671L202.715 601.003C202.519 601.739 202.956 602.501 203.688 602.698L205.018 603.057C205.75 603.255 206.509 602.815 206.706 602.08L208.402 595.729L214.009 592.482L214.009 599.433L209.214 604.25C208.661 604.806 208.661 605.721 209.214 606.277L210.223 607.291C210.777 607.847 211.687 607.847 212.241 607.291L214.009 605.524L214.009 609.148C214.009 609.937 214.651 610.583 215.437 610.583L218.294 610.583C219.08 610.583 219.723 609.937 219.723 609.148L219.723 605.524L221.481 607.291C222.035 607.847 222.945 607.847 223.499 607.291L224.517 606.277C225.079 605.721 225.079 604.806 224.517 604.25L219.723 599.433L219.723 592.482L225.329 595.729L227.025 602.08C227.222 602.815 227.981 603.255 228.713 603.057L230.043 602.698C230.775 602.501 231.213 601.739 231.016 601.003L230.391 598.671L233.409 600.42C234.07 600.806 234.909 600.573 235.293 599.909L236.676 597.514C237.06 596.85 236.828 596.007 236.168 595.621L233.15 593.872L235.471 593.244C236.212 593.047 236.65 592.284 236.453 591.54L236.096 590.203C235.9 589.468 235.141 589.028 234.409 589.226L228.088 590.93L222.392 587.62L228.088 584.31L234.409 586.014C235.141 586.212 235.9 585.772 236.096 585.037L236.453 583.7C236.65 582.965 236.212 582.202 235.48 582.005L233.159 581.377L236.176 579.619C236.837 579.233 237.06 578.39 236.685 577.726L235.302 575.322C234.918 574.659 234.078 574.434 233.418 574.811L230.4 576.56L231.025 574.228C231.222 573.492 230.784 572.73 230.052 572.533L228.722 572.174C227.99 571.977 227.231 572.416 227.034 573.152L225.338 579.502L219.731 582.749L219.731 575.798L224.526 570.981C225.088 570.425 225.088 569.51 224.526 568.954L223.517 567.94C222.963 567.384 222.053 567.384 221.499 567.94L219.74 569.707L219.74 566.092C219.74 565.303 219.098 564.657 218.312 564.657L215.455 564.657C214.669 564.657 214.027 565.303 214.027 566.092L214.027 569.716L212.268 567.949C211.714 567.393 210.804 567.393 210.25 567.949L209.241 568.963C208.688 569.519 208.688 570.434 209.241 570.99L214.009 575.807L214.009 582.758L208.402 579.511L206.706 573.161C206.509 572.425 205.75 571.985 205.018 572.183L203.688 572.542C202.956 572.739 202.519 573.501 202.715 574.237L203.34 576.569L200.322 574.82C199.662 574.434 198.822 574.667 198.439 575.331L197.055 577.735C196.671 578.39 196.894 579.242 197.555 579.619V579.619Z" fill="white"/>
<path d="M34.3833 559.471L36.6465 560.664L34.9055 561.092C34.3565 561.226 34.0284 561.746 34.1757 562.248L34.4435 563.159C34.5908 563.66 35.16 563.96 35.709 563.826L40.4497 562.664L44.7284 564.926L40.4564 567.183L35.7157 566.021C35.1667 565.887 34.5975 566.186 34.4502 566.688L34.1824 567.599C34.0351 568.101 34.3632 568.62 34.9122 568.755L36.6532 569.183L34.39 570.376C33.8945 570.639 33.7271 571.214 34.0083 571.666L35.0462 573.305C35.3341 573.758 35.9635 573.911 36.459 573.654L38.7222 572.461L38.2535 574.051C38.1062 574.553 38.4343 575.073 38.9833 575.207L39.981 575.452C40.5301 575.586 41.0992 575.287 41.2465 574.785L42.5187 570.455L46.7237 568.241L46.7237 572.981L43.1281 576.265C42.7129 576.644 42.7129 577.268 43.1281 577.647L43.8847 578.338C44.2998 578.718 44.9828 578.718 45.398 578.338L46.7237 577.134L46.7237 579.604C46.7237 580.143 47.2058 580.583 47.7951 580.583L49.9378 580.583C50.527 580.583 51.0091 580.143 51.0091 579.604L51.0091 577.134L52.3282 578.338C52.7433 578.718 53.4263 578.718 53.8415 578.338L54.6048 577.647C55.0266 577.268 55.0266 576.644 54.6048 576.265L51.0091 572.981L51.0091 568.241L55.2141 570.455L56.4863 574.785C56.6336 575.287 57.2028 575.586 57.7518 575.452L58.7495 575.207C59.2986 575.073 59.6267 574.553 59.4794 574.051L59.0107 572.461L61.2739 573.654C61.7694 573.917 62.3988 573.758 62.6867 573.305L63.7246 571.672C64.0125 571.22 63.8384 570.645 63.3429 570.382L61.0797 569.189L62.8206 568.761C63.3764 568.627 63.7045 568.107 63.5572 567.599L63.2893 566.688C63.142 566.186 62.5729 565.887 62.0238 566.021L57.2831 567.183L53.0112 564.926L57.2831 562.67L62.0238 563.832C62.5729 563.966 63.142 563.667 63.2893 563.165L63.5572 562.254C63.7045 561.752 63.3764 561.232 62.8273 561.098L61.0864 560.67L63.3496 559.471C63.8451 559.208 64.0125 558.633 63.7312 558.181L62.6934 556.542C62.4055 556.089 61.7761 555.936 61.2806 556.193L59.0174 557.386L59.4861 555.795C59.6334 555.294 59.3053 554.774 58.7562 554.64L57.7585 554.395C57.2095 554.26 56.6403 554.56 56.493 555.062L55.2208 559.392L51.0158 561.606L51.0158 556.866L54.6115 553.582C55.0333 553.202 55.0333 552.579 54.6115 552.199L53.8548 551.508C53.4397 551.129 52.7567 551.129 52.3416 551.508L51.0225 552.713L51.0225 550.248C51.0225 549.71 50.5404 549.27 49.9512 549.27L47.8085 549.27C47.2192 549.27 46.7371 549.71 46.7371 550.248L46.7371 552.719L45.4181 551.514C45.0029 551.135 44.3199 551.135 43.9048 551.514L43.1482 552.205C42.733 552.585 42.733 553.208 43.1482 553.588L46.7237 556.872L46.7237 561.612L42.5187 559.398L41.2465 555.068C41.0992 554.566 40.5301 554.267 39.981 554.401L38.9833 554.646C38.4343 554.78 38.1062 555.3 38.2535 555.802L38.7222 557.392L36.459 556.199C35.9635 555.936 35.3341 556.095 35.0462 556.548L34.0083 558.187C33.7204 558.633 33.8878 559.214 34.3833 559.471V559.471Z" fill="white"/>
<path d="M318.211 682.508L319.72 683.303L318.56 683.589C318.193 683.679 317.975 684.025 318.073 684.359L318.251 684.967C318.35 685.301 318.729 685.501 319.095 685.411L322.256 684.637L325.108 686.145L322.26 687.65L319.1 686.875C318.734 686.785 318.354 686.985 318.256 687.32L318.077 687.927C317.979 688.261 318.198 688.608 318.564 688.698L319.725 688.983L318.216 689.778C317.885 689.953 317.774 690.337 317.961 690.638L318.653 691.731C318.845 692.033 319.265 692.135 319.595 691.964L321.104 691.168L320.791 692.229C320.693 692.563 320.912 692.909 321.278 692.999L321.943 693.162C322.309 693.252 322.689 693.052 322.787 692.718L323.635 689.831L326.438 688.355L326.438 691.515L324.041 693.704C323.764 693.957 323.764 694.373 324.041 694.626L324.546 695.087C324.822 695.339 325.278 695.339 325.554 695.087L326.438 694.283L326.438 695.931C326.438 696.289 326.76 696.583 327.153 696.583L328.581 696.583C328.974 696.583 329.295 696.289 329.295 695.931L329.295 694.283L330.175 695.087C330.451 695.339 330.907 695.339 331.183 695.087L331.692 694.626C331.974 694.373 331.974 693.957 331.692 693.704L329.295 691.515L329.295 688.355L332.099 689.831L332.947 692.718C333.045 693.052 333.424 693.252 333.79 693.162L334.455 692.999C334.822 692.909 335.04 692.563 334.942 692.229L334.63 691.168L336.138 691.964C336.469 692.139 336.888 692.033 337.08 691.731L337.772 690.642C337.964 690.341 337.848 689.958 337.518 689.782L336.009 688.987L337.17 688.702C337.54 688.612 337.759 688.265 337.661 687.927L337.482 687.32C337.384 686.985 337.004 686.785 336.638 686.875L333.478 687.65L330.63 686.145L333.478 684.641L336.638 685.415C337.004 685.505 337.384 685.305 337.482 684.971L337.661 684.364C337.759 684.029 337.54 683.683 337.174 683.593L336.013 683.308L337.522 682.508C337.853 682.333 337.964 681.95 337.777 681.648L337.085 680.555C336.893 680.254 336.473 680.152 336.143 680.323L334.634 681.118L334.947 680.058C335.045 679.724 334.826 679.377 334.46 679.287L333.795 679.124C333.429 679.035 333.049 679.234 332.951 679.569L332.103 682.455L329.3 683.931L329.3 680.772L331.697 678.582C331.978 678.329 331.978 677.913 331.697 677.661L331.192 677.2C330.916 676.947 330.46 676.947 330.184 677.2L329.304 678.003L329.304 676.36C329.304 676.001 328.983 675.708 328.59 675.708L327.161 675.708C326.769 675.708 326.447 676.001 326.447 676.36L326.447 678.007L325.568 677.204C325.291 676.951 324.836 676.951 324.559 677.204L324.055 677.665C323.778 677.917 323.778 678.333 324.055 678.586L326.438 680.776L326.438 683.935L323.635 682.459L322.787 679.573C322.689 679.238 322.309 679.039 321.943 679.128L321.278 679.291C320.912 679.381 320.693 679.728 320.791 680.062L321.104 681.122L319.595 680.327C319.265 680.152 318.845 680.258 318.653 680.559L317.961 681.652C317.769 681.95 317.881 682.337 318.211 682.508V682.508Z" fill="white"/>
<path d="M631.032 738.867L635.558 741.491L632.076 742.433C630.978 742.729 630.322 743.873 630.617 744.976L631.152 746.981C631.447 748.084 632.585 748.743 633.683 748.447L643.165 745.891L651.722 750.869L643.178 755.834L633.697 753.277C632.599 752.981 631.46 753.641 631.166 754.744L630.63 756.749C630.335 757.852 630.991 758.996 632.09 759.292L635.571 760.234L631.045 762.857C630.054 763.436 629.719 764.701 630.282 765.696L632.357 769.302C632.933 770.298 634.192 770.634 635.183 770.069L639.71 767.445L638.772 770.944C638.477 772.047 639.134 773.191 640.232 773.487L642.227 774.025C643.325 774.321 644.464 773.662 644.758 772.558L647.303 763.032L655.713 758.162L655.713 768.589L648.521 775.814C647.691 776.649 647.691 778.021 648.521 778.855L650.035 780.376C650.865 781.21 652.231 781.21 653.061 780.376L655.713 777.725L655.713 783.161C655.713 784.345 656.677 785.313 657.855 785.313L662.141 785.313C663.319 785.313 664.283 784.345 664.283 783.161L664.283 777.725L666.922 780.376C667.752 781.21 669.118 781.21 669.948 780.376L671.475 778.855C672.318 778.021 672.318 776.649 671.475 775.814L664.283 768.589L664.283 758.162L672.693 763.032L675.238 772.558C675.532 773.662 676.671 774.321 677.769 774.025L679.764 773.487C680.862 773.191 681.518 772.047 681.224 770.944L680.286 767.445L684.813 770.069C685.804 770.648 687.063 770.298 687.639 769.302L689.714 765.71C690.29 764.714 689.942 763.449 688.951 762.871L684.425 760.247L687.906 759.305C689.018 759.009 689.674 757.866 689.379 756.749L688.844 754.744C688.549 753.641 687.411 752.981 686.313 753.277L676.831 755.834L668.287 750.869L676.831 745.904L686.313 748.461C687.411 748.757 688.549 748.097 688.844 746.994L689.379 744.989C689.674 743.886 689.018 742.742 687.92 742.446L684.438 741.504L688.964 738.867C689.955 738.289 690.29 737.024 689.728 736.028L687.652 732.422C687.076 731.427 685.817 731.09 684.826 731.655L680.3 734.279L681.237 730.781C681.532 729.678 680.876 728.534 679.778 728.238L677.782 727.7C676.684 727.404 675.546 728.063 675.251 729.166L672.707 738.692L664.297 743.563L664.297 733.136L671.488 725.91C672.332 725.076 672.332 723.704 671.488 722.869L669.975 721.349C669.145 720.515 667.779 720.515 666.948 721.349L664.31 724L664.31 718.577C664.31 717.393 663.346 716.425 662.167 716.425L657.882 716.425C656.704 716.425 655.739 717.393 655.739 718.577L655.739 724.013L653.101 721.363C652.271 720.528 650.905 720.528 650.075 721.363L648.561 722.883C647.731 723.717 647.731 725.09 648.561 725.924L655.713 733.149L655.713 743.576L647.303 738.706L644.758 729.18C644.464 728.076 643.325 727.417 642.227 727.713L640.232 728.251C639.134 728.547 638.477 729.691 638.772 730.794L639.71 734.293L635.183 731.669C634.192 731.09 632.933 731.44 632.357 732.436L630.282 736.042C629.706 737.024 630.041 738.302 631.032 738.867V738.867Z" fill="white"/>
<path d="M499.859 628.608L503.631 630.795L500.73 631.58C499.815 631.826 499.268 632.779 499.514 633.699L499.96 635.369C500.205 636.289 501.154 636.838 502.069 636.592L509.97 634.461L517.101 638.61L509.981 642.747L502.08 640.617C501.165 640.37 500.217 640.92 499.971 641.839L499.525 643.51C499.279 644.429 499.826 645.382 500.741 645.629L503.643 646.414L499.871 648.6C499.045 649.082 498.766 650.136 499.235 650.966L500.964 653.971C501.444 654.8 502.493 655.081 503.319 654.61L507.091 652.423L506.31 655.339C506.064 656.258 506.611 657.211 507.526 657.458L509.189 657.906C510.104 658.153 511.053 657.604 511.298 656.684L513.419 648.746L520.427 644.687L520.427 653.376L514.434 659.398C513.742 660.093 513.742 661.236 514.434 661.932L515.695 663.199C516.387 663.894 517.525 663.894 518.217 663.199L520.427 660.99L520.427 665.519C520.427 666.506 521.23 667.313 522.213 667.313L525.784 667.313C526.766 667.313 527.569 666.506 527.569 665.519L527.569 660.99L529.768 663.199C530.46 663.894 531.598 663.894 532.29 663.199L533.562 661.932C534.265 661.236 534.265 660.093 533.562 659.398L527.569 653.376L527.569 644.687L534.578 648.746L536.698 656.684C536.943 657.604 537.892 658.153 538.807 657.906L540.47 657.458C541.385 657.211 541.932 656.258 541.686 655.339L540.905 652.423L544.677 654.61C545.503 655.092 546.552 654.8 547.032 653.971L548.762 650.977C549.241 650.147 548.951 649.093 548.126 648.611L544.354 646.425L547.255 645.64C548.181 645.393 548.728 644.44 548.483 643.51L548.036 641.839C547.791 640.92 546.842 640.37 545.927 640.617L538.026 642.747L530.906 638.61L538.026 634.472L545.927 636.603C546.842 636.849 547.791 636.3 548.036 635.381L548.483 633.71C548.728 632.791 548.181 631.837 547.266 631.591L544.365 630.806L548.137 628.608C548.962 628.126 549.241 627.072 548.773 626.243L547.043 623.238C546.563 622.408 545.514 622.128 544.688 622.598L540.916 624.785L541.697 621.87C541.943 620.95 541.396 619.997 540.481 619.751L538.818 619.302C537.903 619.055 536.955 619.605 536.709 620.524L534.589 628.463L527.58 632.521L527.58 623.832L533.573 617.811C534.276 617.116 534.276 615.972 533.573 615.277L532.312 614.01C531.62 613.315 530.482 613.315 529.79 614.01L527.592 616.219L527.592 611.7C527.592 610.713 526.788 609.906 525.806 609.906L522.235 609.906C521.253 609.906 520.449 610.713 520.449 611.7L520.449 616.23L518.251 614.021C517.559 613.326 516.421 613.326 515.729 614.021L514.468 615.288C513.776 615.983 513.776 617.127 514.468 617.822L520.427 623.843L520.427 632.533L513.419 628.474L511.298 620.535C511.053 619.616 510.104 619.067 509.189 619.313L507.526 619.762C506.611 620.008 506.064 620.961 506.31 621.881L507.091 624.796L503.319 622.61C502.493 622.128 501.444 622.419 500.964 623.249L499.235 626.254C498.755 627.072 499.034 628.137 499.859 628.608V628.608Z" fill="white"/>
<path d="M590.687 493.349L593.705 495.098L591.384 495.726C590.652 495.924 590.214 496.686 590.411 497.422L590.768 498.758C590.964 499.494 591.723 499.933 592.455 499.736L598.776 498.032L604.481 501.351L598.785 504.66L592.464 502.956C591.732 502.759 590.973 503.198 590.777 503.934L590.419 505.27C590.223 506.006 590.661 506.768 591.393 506.966L593.714 507.594L590.696 509.343C590.036 509.728 589.812 510.572 590.187 511.235L591.571 513.639C591.955 514.303 592.794 514.527 593.455 514.151L596.473 512.401L595.848 514.734C595.651 515.469 596.089 516.232 596.821 516.429L598.151 516.788C598.883 516.985 599.642 516.546 599.838 515.81L601.535 509.459L607.141 506.212L607.141 513.164L602.347 517.981C601.793 518.537 601.793 519.452 602.347 520.008L603.356 521.022C603.909 521.578 604.82 521.578 605.374 521.022L607.141 519.254L607.141 522.878C607.141 523.668 607.784 524.313 608.57 524.313L611.427 524.313C612.212 524.313 612.855 523.668 612.855 522.878L612.855 519.254L614.614 521.022C615.167 521.578 616.078 521.578 616.632 521.022L617.649 520.008C618.212 519.452 618.212 518.537 617.649 517.981L612.855 513.164L612.855 506.212L618.462 509.459L620.158 515.81C620.354 516.546 621.113 516.985 621.845 516.788L623.176 516.429C623.908 516.232 624.345 515.469 624.149 514.734L623.524 512.401L626.541 514.151C627.202 514.536 628.041 514.303 628.425 513.639L629.809 511.244C630.193 510.581 629.961 509.737 629.3 509.352L626.283 507.603L628.604 506.975C629.345 506.777 629.782 506.015 629.586 505.27L629.229 503.934C629.032 503.198 628.273 502.759 627.541 502.956L621.22 504.66L615.524 501.351L621.22 498.041L627.541 499.745C628.273 499.942 629.032 499.503 629.229 498.767L629.586 497.431C629.782 496.695 629.345 495.933 628.613 495.735L626.291 495.107L629.309 493.349C629.97 492.964 630.193 492.12 629.818 491.457L628.434 489.053C628.05 488.389 627.211 488.165 626.55 488.541L623.533 490.291L624.158 487.958C624.354 487.223 623.917 486.46 623.185 486.263L621.854 485.904C621.122 485.707 620.363 486.147 620.167 486.882L618.471 493.233L612.864 496.48L612.864 489.528L617.658 484.711C618.221 484.155 618.221 483.24 617.658 482.684L616.649 481.671C616.096 481.114 615.185 481.114 614.632 481.671L612.873 483.438L612.873 479.823C612.873 479.033 612.23 478.388 611.444 478.388L608.588 478.388C607.802 478.388 607.159 479.033 607.159 479.823L607.159 483.447L605.4 481.68C604.847 481.123 603.936 481.123 603.383 481.68L602.374 482.693C601.82 483.249 601.82 484.164 602.374 484.72L607.141 489.537L607.141 496.489L601.535 493.242L599.838 486.891C599.642 486.155 598.883 485.716 598.151 485.913L596.821 486.272C596.089 486.469 595.651 487.232 595.848 487.967L596.473 490.3L593.455 488.55C592.794 488.165 591.955 488.398 591.571 489.062L590.187 491.466C589.803 492.12 590.027 492.973 590.687 493.349V493.349Z" fill="white"/>
<path d="M427.516 473.202L429.779 474.394L428.038 474.822C427.489 474.957 427.161 475.477 427.308 475.978L427.576 476.889C427.723 477.391 428.293 477.691 428.842 477.556L433.582 476.394L437.861 478.657L433.589 480.914L428.848 479.752C428.299 479.617 427.73 479.917 427.583 480.418L427.315 481.33C427.168 481.831 427.496 482.351 428.045 482.485L429.786 482.914L427.523 484.106C427.027 484.369 426.86 484.944 427.141 485.397L428.179 487.036C428.467 487.488 429.096 487.641 429.592 487.384L431.855 486.192L431.386 487.782C431.239 488.283 431.567 488.803 432.116 488.938L433.114 489.182C433.663 489.317 434.232 489.017 434.379 488.516L435.651 484.186L439.856 481.972L439.856 486.711L436.261 489.996C435.845 490.375 435.845 490.999 436.261 491.378L437.017 492.069C437.432 492.448 438.115 492.448 438.531 492.069L439.856 490.864L439.856 493.335C439.856 493.873 440.338 494.313 440.928 494.313L443.07 494.313C443.66 494.313 444.142 493.873 444.142 493.335L444.142 490.864L445.461 492.069C445.876 492.448 446.559 492.448 446.974 492.069L447.737 491.378C448.159 490.999 448.159 490.375 447.737 489.996L444.142 486.711L444.142 481.972L448.347 484.186L449.619 488.516C449.766 489.017 450.335 489.317 450.884 489.182L451.882 488.938C452.431 488.803 452.759 488.283 452.612 487.782L452.143 486.192L454.406 487.384C454.902 487.647 455.531 487.488 455.819 487.036L456.857 485.403C457.145 484.95 456.971 484.375 456.475 484.112L454.212 482.92L455.953 482.492C456.509 482.357 456.837 481.837 456.69 481.33L456.422 480.418C456.275 479.917 455.705 479.617 455.156 479.752L450.416 480.914L446.144 478.657L450.416 476.4L455.156 477.562C455.705 477.697 456.275 477.397 456.422 476.896L456.69 475.984C456.837 475.483 456.509 474.963 455.96 474.828L454.219 474.4L456.482 473.202C456.978 472.939 457.145 472.364 456.864 471.911L455.826 470.272C455.538 469.82 454.909 469.667 454.413 469.923L452.15 471.116L452.619 469.526C452.766 469.024 452.438 468.505 451.889 468.37L450.891 468.125C450.342 467.991 449.773 468.291 449.626 468.792L448.353 473.122L444.148 475.336L444.148 470.596L447.744 467.312C448.166 466.933 448.166 466.309 447.744 465.93L446.987 465.239C446.572 464.86 445.889 464.86 445.474 465.239L444.155 466.444L444.155 463.979C444.155 463.441 443.673 463 443.084 463L440.941 463C440.352 463 439.87 463.441 439.87 463.979L439.87 466.45L438.551 465.245C438.135 464.866 437.452 464.866 437.037 465.245L436.281 465.936C435.866 466.315 435.866 466.939 436.281 467.318L439.856 470.602L439.856 475.342L435.651 473.128L434.379 468.798C434.232 468.297 433.663 467.997 433.114 468.132L432.116 468.376C431.567 468.511 431.239 469.031 431.386 469.532L431.855 471.122L429.592 469.93C429.096 469.667 428.467 469.826 428.179 470.278L427.141 471.917C426.853 472.364 427.02 472.945 427.516 473.202V473.202Z" fill="white"/>
<path d="M711.344 596.239L712.853 597.034L711.692 597.319C711.326 597.409 711.107 597.756 711.206 598.09L711.384 598.697C711.482 599.032 711.862 599.232 712.228 599.142L715.388 598.367L718.241 599.876L715.393 601.38L712.232 600.606C711.866 600.516 711.487 600.716 711.389 601.05L711.21 601.658C711.112 601.992 711.33 602.338 711.697 602.428L712.857 602.714L711.348 603.509C711.018 603.684 710.906 604.067 711.094 604.369L711.786 605.462C711.978 605.763 712.397 605.865 712.728 605.694L714.237 604.899L713.924 605.959C713.826 606.293 714.045 606.64 714.411 606.73L715.076 606.893C715.442 606.982 715.821 606.783 715.919 606.448L716.768 603.562L719.571 602.086L719.571 605.245L717.174 607.435C716.897 607.688 716.897 608.104 717.174 608.356L717.678 608.817C717.955 609.07 718.41 609.07 718.687 608.817L719.571 608.014L719.571 609.661C719.571 610.02 719.892 610.313 720.285 610.313L721.714 610.313C722.106 610.313 722.428 610.02 722.428 609.661L722.428 608.014L723.307 608.817C723.584 609.07 724.039 609.07 724.316 608.817L724.825 608.356C725.106 608.104 725.106 607.688 724.825 607.435L722.428 605.245L722.428 602.086L725.231 603.562L726.079 606.448C726.177 606.783 726.557 606.982 726.923 606.893L727.588 606.73C727.954 606.64 728.173 606.293 728.075 605.959L727.762 604.899L729.271 605.694C729.601 605.869 730.021 605.763 730.213 605.462L730.905 604.373C731.097 604.071 730.981 603.688 730.65 603.513L729.142 602.718L730.302 602.432C730.673 602.342 730.891 601.996 730.793 601.658L730.615 601.05C730.516 600.716 730.137 600.516 729.771 600.606L726.61 601.38L723.762 599.876L726.61 598.371L729.771 599.146C730.137 599.236 730.516 599.036 730.615 598.702L730.793 598.094C730.891 597.76 730.673 597.413 730.307 597.323L729.146 597.038L730.655 596.239C730.985 596.064 731.097 595.68 730.909 595.379L730.217 594.286C730.025 593.984 729.606 593.882 729.275 594.053L727.767 594.849L728.079 593.788C728.177 593.454 727.959 593.108 727.593 593.018L726.927 592.855C726.561 592.765 726.182 592.965 726.084 593.299L725.236 596.186L722.432 597.662L722.432 594.502L724.829 592.313C725.111 592.06 725.111 591.644 724.829 591.391L724.325 590.93C724.048 590.678 723.593 590.678 723.316 590.93L722.437 591.734L722.437 590.09C722.437 589.732 722.115 589.438 721.722 589.438L720.294 589.438C719.901 589.438 719.58 589.732 719.58 590.09L719.58 591.738L718.7 590.934C718.424 590.682 717.968 590.682 717.692 590.934L717.187 591.395C716.91 591.648 716.91 592.064 717.187 592.317L719.571 594.506L719.571 597.666L716.768 596.19L715.919 593.303C715.821 592.969 715.442 592.769 715.076 592.859L714.411 593.022C714.045 593.112 713.826 593.458 713.924 593.793L714.237 594.853L712.728 594.058C712.397 593.882 711.978 593.988 711.786 594.29L711.094 595.383C710.902 595.68 711.014 596.068 711.344 596.239V596.239Z" fill="white"/>
<path d="M1072.71 171.125L1075.33 166.598L1076.28 170.08C1076.57 171.178 1077.72 171.834 1078.82 171.54L1080.82 171.004C1081.93 170.709 1082.59 169.571 1082.29 168.473L1079.73 158.992L1084.71 150.434L1089.68 158.978L1087.12 168.46C1086.82 169.558 1087.48 170.696 1088.59 170.991L1090.59 171.526C1091.7 171.821 1092.84 171.165 1093.14 170.067L1094.08 166.585L1096.7 171.111C1097.28 172.102 1098.54 172.437 1099.54 171.875L1103.15 169.799C1104.14 169.223 1104.48 167.964 1103.91 166.973L1101.29 162.447L1104.79 163.384C1105.89 163.679 1107.03 163.023 1107.33 161.924L1107.87 159.929C1108.16 158.831 1107.5 157.693 1106.4 157.398L1096.88 154.854L1092 146.444L1102.43 146.444L1109.66 153.635C1110.49 154.465 1111.86 154.465 1112.7 153.635L1114.22 152.122C1115.05 151.291 1115.05 149.925 1114.22 149.095L1111.57 146.444L1117 146.444C1118.19 146.444 1119.16 145.479 1119.16 144.301L1119.16 140.016C1119.16 138.837 1118.19 137.873 1117 137.873L1111.57 137.873L1114.22 135.235C1115.05 134.404 1115.05 133.038 1114.22 132.208L1112.7 130.682C1111.86 129.838 1110.49 129.838 1109.66 130.682L1102.43 137.873L1092 137.873L1096.88 129.463L1106.4 126.918C1107.5 126.624 1108.16 125.486 1107.87 124.387L1107.33 122.392C1107.03 121.294 1105.89 120.638 1104.79 120.932L1101.29 121.87L1103.91 117.343C1104.49 116.352 1104.14 115.094 1103.15 114.518L1099.55 112.442C1098.56 111.866 1097.29 112.214 1096.71 113.205L1094.09 117.732L1093.15 114.25C1092.85 113.138 1091.71 112.482 1090.59 112.777L1088.59 113.312C1087.48 113.607 1086.82 114.745 1087.12 115.844L1089.68 125.325L1084.71 133.869L1079.75 125.325L1082.3 115.844C1082.6 114.745 1081.94 113.607 1080.84 113.312L1078.83 112.777C1077.73 112.482 1076.59 113.138 1076.29 114.237L1075.35 117.718L1072.71 113.192C1072.13 112.201 1070.87 111.866 1069.87 112.429L1066.27 114.504C1065.27 115.08 1064.93 116.339 1065.5 117.33L1068.12 121.856L1064.62 120.919C1063.52 120.624 1062.38 121.281 1062.08 122.379L1061.54 124.374C1061.25 125.472 1061.91 126.61 1063.01 126.905L1072.54 129.45L1077.41 137.86L1066.98 137.86L1059.75 130.668C1058.92 129.824 1057.55 129.824 1056.71 130.668L1055.19 132.181C1054.36 133.012 1054.36 134.378 1055.19 135.208L1057.84 137.846L1052.42 137.846C1051.24 137.846 1050.27 138.81 1050.27 139.989L1050.27 144.274C1050.27 145.453 1051.24 146.417 1052.42 146.417L1057.86 146.417L1055.21 149.055C1054.37 149.885 1054.37 151.251 1055.21 152.082L1056.73 153.595C1057.56 154.425 1058.93 154.425 1059.77 153.595L1066.99 146.444L1077.42 146.444L1072.55 154.854L1063.02 157.398C1061.92 157.693 1061.26 158.831 1061.56 159.929L1062.09 161.924C1062.39 163.023 1063.53 163.679 1064.64 163.384L1068.14 162.447L1065.51 166.973C1064.93 167.964 1065.28 169.223 1066.28 169.799L1069.89 171.875C1070.87 172.45 1072.15 172.116 1072.71 171.125V171.125Z" fill="white"/>
<path d="M962.452 302.298L964.638 298.526L965.423 301.427C965.67 302.342 966.623 302.889 967.542 302.643L969.213 302.197C970.132 301.952 970.681 301.003 970.435 300.088L968.304 292.187L972.453 285.056L976.59 292.176L974.46 300.077C974.213 300.992 974.763 301.94 975.682 302.186L977.353 302.632C978.272 302.878 979.225 302.331 979.472 301.416L980.257 298.514L982.443 302.286C982.925 303.112 983.979 303.391 984.809 302.922L987.814 301.193C988.644 300.713 988.924 299.664 988.453 298.838L986.267 295.066L989.182 295.847C990.101 296.093 991.054 295.546 991.301 294.631L991.75 292.968C991.996 292.053 991.447 291.104 990.527 290.859L982.589 288.738L978.53 281.73L987.22 281.73L993.241 287.723C993.936 288.415 995.08 288.415 995.775 287.723L997.042 286.462C997.737 285.77 997.737 284.632 997.042 283.94L994.833 281.73L999.363 281.73C1000.35 281.73 1001.16 280.927 1001.16 279.944L1001.16 276.373C1001.16 275.391 1000.35 274.588 999.363 274.588L994.833 274.588L997.042 272.389C997.737 271.697 997.737 270.559 997.042 269.867L995.775 268.595C995.08 267.892 993.936 267.892 993.241 268.595L987.22 274.588L978.53 274.588L982.589 267.579L990.527 265.459C991.447 265.214 991.996 264.265 991.75 263.35L991.301 261.687C991.054 260.772 990.101 260.225 989.182 260.471L986.267 261.252L988.453 257.48C988.935 256.654 988.644 255.605 987.814 255.125L984.82 253.395C983.991 252.915 982.937 253.206 982.454 254.031L980.268 257.803L979.483 254.902C979.237 253.976 978.283 253.429 977.353 253.674L975.682 254.121C974.763 254.366 974.213 255.315 974.46 256.23L976.59 264.131L972.453 271.251L968.316 264.131L970.446 256.23C970.693 255.315 970.143 254.366 969.224 254.121L967.553 253.674C966.634 253.429 965.681 253.976 965.434 254.891L964.649 257.792L962.452 254.02C961.969 253.194 960.915 252.915 960.086 253.384L957.081 255.114C956.251 255.594 955.971 256.643 956.442 257.469L958.628 261.241L955.713 260.46C954.794 260.214 953.84 260.761 953.594 261.676L953.145 263.339C952.899 264.254 953.448 265.202 954.367 265.448L962.306 267.568L966.365 274.577L957.675 274.577L951.654 268.584C950.959 267.881 949.815 267.881 949.12 268.584L947.853 269.845C947.158 270.537 947.158 271.675 947.853 272.367L950.062 274.565L945.543 274.565C944.557 274.565 943.749 275.369 943.749 276.351L943.749 279.922C943.749 280.904 944.557 281.708 945.543 281.708L950.073 281.708L947.864 283.906C947.169 284.598 947.169 285.736 947.864 286.428L949.131 287.689C949.826 288.381 950.97 288.381 951.665 287.689L957.686 281.73L966.376 281.73L962.317 288.738L954.379 290.859C953.459 291.104 952.91 292.053 953.157 292.968L953.605 294.631C953.852 295.546 954.805 296.093 955.724 295.847L958.639 295.066L956.453 298.838C955.971 299.664 956.262 300.713 957.092 301.193L960.097 302.922C960.915 303.402 961.981 303.123 962.452 302.298V302.298Z" fill="white"/>
<path d="M827.193 211.469L828.942 208.452L829.57 210.773C829.767 211.505 830.529 211.943 831.265 211.746L832.601 211.389C833.337 211.193 833.777 210.434 833.579 209.702L831.875 203.381L835.194 197.676L838.504 203.372L836.799 209.693C836.602 210.425 837.042 211.184 837.777 211.38L839.114 211.737C839.849 211.934 840.612 211.496 840.809 210.764L841.437 208.443L843.186 211.461C843.572 212.121 844.415 212.344 845.079 211.969L847.483 210.586C848.146 210.202 848.371 209.362 847.994 208.702L846.245 205.684L848.577 206.309C849.312 206.506 850.075 206.068 850.272 205.336L850.631 204.006C850.828 203.274 850.389 202.515 849.653 202.318L843.303 200.622L840.055 195.015L847.007 195.015L851.824 199.81C852.38 200.363 853.295 200.363 853.851 199.81L854.865 198.801C855.421 198.247 855.421 197.337 854.865 196.783L853.098 195.015L856.722 195.015C857.511 195.015 858.157 194.373 858.157 193.587L858.157 190.73C858.157 189.944 857.511 189.302 856.722 189.302L853.098 189.302L854.865 187.543C855.421 186.989 855.421 186.079 854.865 185.525L853.851 184.507C853.295 183.945 852.38 183.945 851.824 184.507L847.007 189.302L840.055 189.302L843.303 183.695L849.653 181.999C850.389 181.802 850.828 181.043 850.631 180.311L850.272 178.981C850.075 178.249 849.312 177.812 848.577 178.008L846.245 178.633L847.994 175.615C848.38 174.955 848.146 174.115 847.483 173.732L845.088 172.348C844.424 171.964 843.581 172.196 843.195 172.857L841.446 175.874L840.818 173.553C840.621 172.812 839.858 172.375 839.114 172.571L837.777 172.928C837.042 173.124 836.602 173.883 836.799 174.615L838.504 180.936L835.194 186.632L831.884 180.936L833.588 174.615C833.786 173.883 833.346 173.124 832.61 172.928L831.274 172.571C830.538 172.375 829.776 172.812 829.579 173.544L828.951 175.865L827.193 172.848C826.807 172.187 825.964 171.964 825.3 172.339L822.896 173.723C822.232 174.107 822.008 174.946 822.385 175.606L824.134 178.624L821.802 177.999C821.066 177.803 820.304 178.24 820.106 178.972L819.748 180.302C819.55 181.035 819.99 181.793 820.725 181.99L827.076 183.686L830.323 189.293L823.371 189.293L818.555 184.499C817.998 183.936 817.084 183.936 816.527 184.499L815.514 185.507C814.958 186.061 814.958 186.972 815.514 187.525L817.281 189.284L813.666 189.284C812.877 189.284 812.231 189.927 812.231 190.712L812.231 193.569C812.231 194.355 812.877 194.998 813.666 194.998L817.29 194.998L815.523 196.756C814.967 197.31 814.967 198.221 815.523 198.774L816.536 199.783C817.093 200.336 818.007 200.336 818.564 199.783L823.38 195.015L830.332 195.015L827.085 200.622L820.734 202.318C819.999 202.515 819.559 203.274 819.757 204.006L820.115 205.336C820.313 206.068 821.075 206.506 821.811 206.309L824.143 205.684L822.394 208.702C822.008 209.362 822.241 210.202 822.905 210.586L825.309 211.969C825.964 212.353 826.816 212.13 827.193 211.469V211.469Z" fill="white"/>
<path d="M807.045 374.64L808.237 372.377L808.666 374.118C808.8 374.667 809.32 374.995 809.821 374.848L810.733 374.58C811.234 374.433 811.534 373.864 811.399 373.315L810.237 368.574L812.5 364.295L814.757 368.567L813.595 373.308C813.46 373.857 813.76 374.426 814.262 374.573L815.173 374.841C815.674 374.989 816.194 374.661 816.329 374.111L816.757 372.371L817.949 374.634C818.212 375.129 818.787 375.297 819.24 375.015L820.879 373.978C821.331 373.69 821.484 373.06 821.227 372.565L820.035 370.301L821.625 370.77C822.127 370.918 822.646 370.589 822.781 370.04L823.026 369.043C823.16 368.494 822.86 367.924 822.359 367.777L818.029 366.505L815.815 362.3L820.555 362.3L823.839 365.896C824.218 366.311 824.842 366.311 825.221 365.896L825.912 365.139C826.291 364.724 826.291 364.041 825.912 363.626L824.707 362.3L827.178 362.3C827.716 362.3 828.157 361.818 828.157 361.229L828.157 359.086C828.157 358.497 827.716 358.015 827.178 358.015L824.707 358.015L825.912 356.695C826.291 356.28 826.291 355.597 825.912 355.182L825.221 354.419C824.842 353.997 824.218 353.997 823.839 354.419L820.555 358.015L815.815 358.015L818.029 353.81L822.359 352.537C822.86 352.39 823.16 351.821 823.026 351.272L822.781 350.274C822.646 349.725 822.127 349.397 821.625 349.544L820.035 350.013L821.227 347.75C821.49 347.254 821.331 346.625 820.879 346.337L819.246 345.299C818.793 345.011 818.218 345.185 817.956 345.681L816.763 347.944L816.335 346.203C816.2 345.647 815.68 345.319 815.173 345.467L814.262 345.734C813.76 345.882 813.46 346.451 813.595 347L814.757 351.741L812.5 356.013L810.243 351.741L811.405 347C811.54 346.451 811.24 345.882 810.739 345.734L809.828 345.467C809.326 345.319 808.806 345.647 808.672 346.196L808.244 347.937L807.045 345.674C806.782 345.179 806.207 345.011 805.754 345.292L804.115 346.33C803.663 346.618 803.51 347.248 803.767 347.743L804.959 350.006L803.369 349.538C802.868 349.39 802.348 349.718 802.213 350.267L801.969 351.265C801.834 351.814 802.134 352.383 802.635 352.531L806.965 353.803L809.179 358.008L804.439 358.008L801.155 354.412C800.776 353.99 800.152 353.99 799.773 354.412L799.082 355.169C798.703 355.584 798.703 356.267 799.082 356.682L800.287 358.001L797.822 358.001C797.284 358.001 796.844 358.483 796.844 359.073L796.844 361.215C796.844 361.804 797.284 362.287 797.822 362.287L800.293 362.287L799.088 363.606C798.709 364.021 798.709 364.704 799.088 365.119L799.779 365.876C800.158 366.291 800.782 366.291 801.161 365.876L804.446 362.3L809.185 362.3L806.971 366.505L802.641 367.777C802.14 367.924 801.84 368.494 801.975 369.043L802.219 370.04C802.354 370.589 802.874 370.918 803.375 370.77L804.965 370.301L803.773 372.565C803.51 373.06 803.669 373.69 804.121 373.978L805.761 375.015C806.207 375.303 806.788 375.136 807.045 374.64V374.64Z" fill="white"/>
<path d="M930.082 90.8124L930.877 89.3036L931.163 90.4642C931.252 90.8302 931.599 91.0489 931.933 90.9507L932.541 90.7722C932.875 90.674 933.075 90.2945 932.985 89.9285L932.21 86.7681L933.719 83.9156L935.224 86.7636L934.449 89.924C934.359 90.2901 934.559 90.6695 934.893 90.7677L935.501 90.9463C935.835 91.0445 936.182 90.8258 936.271 90.4597L936.557 89.2991L937.352 90.8079C937.527 91.1382 937.91 91.2498 938.212 91.0623L939.305 90.3704C939.607 90.1785 939.708 89.7589 939.537 89.4285L938.742 87.9197L939.802 88.2322C940.137 88.3304 940.483 88.1117 940.573 87.7457L940.736 87.0805C940.826 86.7145 940.626 86.3351 940.292 86.2369L937.405 85.3887L935.929 82.5854L939.089 82.5854L941.278 84.9825C941.531 85.2593 941.947 85.2593 942.2 84.9825L942.66 84.4781C942.913 84.2013 942.913 83.746 942.66 83.4692L941.857 82.5854L943.504 82.5854C943.863 82.5854 944.157 82.264 944.157 81.8711L944.157 80.4427C944.157 80.0499 943.863 79.7285 943.504 79.7285L941.857 79.7285L942.66 78.8491C942.913 78.5723 942.913 78.117 942.66 77.8402L942.2 77.3314C941.947 77.0501 941.531 77.0501 941.278 77.3314L939.089 79.7285L935.929 79.7285L937.405 76.9251L940.292 76.077C940.626 75.9788 940.826 75.5994 940.736 75.2333L940.573 74.5682C940.483 74.2021 940.137 73.9834 939.802 74.0816L938.742 74.3941L939.537 72.8853C939.713 72.555 939.607 72.1354 939.305 71.9434L938.216 71.2515C937.914 71.0596 937.531 71.1756 937.356 71.5059L936.561 73.0147L936.275 71.8541C936.186 71.4836 935.839 71.2649 935.501 71.3631L934.893 71.5417C934.559 71.6399 934.359 72.0193 934.449 72.3853L935.224 75.5458L933.719 78.3938L932.215 75.5458L932.989 72.3853C933.079 72.0193 932.879 71.6399 932.545 71.5417L931.937 71.3631C931.603 71.2649 931.256 71.4836 931.167 71.8497L930.881 73.0103L930.082 71.5015C929.907 71.1712 929.524 71.0596 929.222 71.247L928.129 71.9389C927.827 72.1309 927.725 72.5505 927.897 72.8808L928.692 74.3896L927.632 74.0772C927.297 73.979 926.951 74.1977 926.861 74.5637L926.698 75.2288C926.608 75.5949 926.808 75.9743 927.142 76.0725L930.029 76.9207L931.505 79.724L928.345 79.724L926.156 77.3269C925.903 77.0457 925.487 77.0457 925.234 77.3269L924.774 77.8313C924.521 78.1081 924.521 78.5634 924.774 78.8402L925.577 79.7195L923.934 79.7195C923.575 79.7195 923.281 80.0409 923.281 80.4338L923.281 81.8622C923.281 82.255 923.575 82.5764 923.934 82.5764L925.581 82.5764L924.778 83.4558C924.525 83.7326 924.525 84.1879 924.778 84.4647L925.238 84.9691C925.491 85.2459 925.907 85.2459 926.16 84.9691L928.349 82.5854L931.509 82.5854L930.033 85.3887L927.147 86.2369C926.812 86.3351 926.612 86.7145 926.702 87.0805L926.865 87.7457C926.955 88.1117 927.301 88.3304 927.636 88.2322L928.696 87.9197L927.901 89.4285C927.725 89.7589 927.832 90.1785 928.133 90.3704L929.226 91.0623C929.524 91.2543 929.911 91.1427 930.082 90.8124V90.8124Z" fill="white"/>
<path d="M1153.73 712.269L1157.42 715.975L1153.81 715.983C1152.68 715.985 1151.75 716.92 1151.74 718.062L1151.74 720.137C1151.74 721.279 1152.67 722.21 1153.81 722.209L1163.63 722.193L1170.61 729.217L1161.07 731.801L1152.57 726.878C1151.59 726.308 1150.32 726.65 1149.75 727.639L1148.71 729.437C1148.14 730.427 1148.48 731.701 1149.46 732.271L1152.58 734.082L1147.53 735.445C1146.42 735.747 1145.77 736.882 1146.06 737.99L1147.13 742.01C1147.43 743.121 1148.56 743.771 1149.66 743.482L1154.71 742.119L1152.9 745.256C1152.33 746.245 1152.67 747.52 1153.65 748.09L1155.44 749.126C1156.42 749.696 1157.69 749.354 1158.27 748.365L1163.19 739.822L1172.57 737.294L1169.87 747.366L1161.06 752.484C1160.04 753.074 1159.68 754.4 1160.27 755.421L1161.34 757.281C1161.92 758.302 1163.24 758.655 1164.26 758.064L1167.51 756.19L1166.1 761.441C1165.8 762.585 1166.48 763.77 1167.61 764.075L1171.75 765.184C1172.89 765.489 1174.07 764.803 1174.38 763.659L1175.79 758.409L1177.65 761.652C1178.24 762.672 1179.56 763.026 1180.57 762.435L1182.44 761.362C1183.47 760.774 1183.83 759.449 1183.23 758.424L1178.15 749.584L1180.85 739.512L1187.71 746.393L1187.71 756.253C1187.71 757.395 1188.63 758.327 1189.77 758.325L1191.84 758.321C1192.98 758.32 1193.91 757.385 1193.91 756.243L1193.91 752.621L1197.6 756.327C1198.41 757.142 1199.71 757.13 1200.53 756.318L1203.46 753.385C1204.28 752.572 1204.27 751.26 1203.46 750.445L1199.77 746.739L1203.37 746.731C1204.52 746.732 1205.45 745.798 1205.46 744.643L1205.46 742.567C1205.46 741.426 1204.53 740.494 1203.39 740.496L1193.57 740.511L1186.61 733.504L1196.14 730.92L1204.64 735.843C1205.62 736.413 1206.89 736.071 1207.47 735.082L1208.5 733.284C1209.07 732.294 1208.73 731.02 1207.75 730.45L1204.63 728.639L1209.68 727.263C1210.79 726.961 1211.44 725.826 1211.16 724.718L1210.09 720.698C1209.79 719.587 1208.66 718.936 1207.55 719.226L1202.5 720.589L1204.31 717.452C1204.88 716.463 1204.55 715.188 1203.56 714.618L1201.77 713.582C1200.79 713.012 1199.52 713.354 1198.95 714.343L1194.03 722.886L1184.64 725.414L1187.34 715.342L1196.16 710.224C1197.19 709.637 1197.54 708.311 1196.94 707.287L1195.88 705.427C1195.29 704.406 1193.97 704.053 1192.95 704.643L1189.72 706.521L1191.12 701.283C1191.43 700.14 1190.75 698.954 1189.61 698.649L1185.47 697.54C1184.33 697.235 1183.15 697.921 1182.84 699.065L1181.44 704.316L1179.57 701.073C1178.99 700.052 1177.67 699.698 1176.65 700.289L1174.8 701.366C1173.78 701.957 1173.42 703.283 1174.01 704.303L1179.05 713.133L1176.35 723.205L1169.48 716.324L1169.49 706.464C1169.49 705.322 1168.56 704.391 1167.43 704.392L1165.36 704.396C1164.22 704.398 1163.29 705.332 1163.29 706.474L1163.29 710.096L1159.6 706.39C1158.79 705.575 1157.49 705.587 1156.67 706.4L1153.73 709.346C1152.92 710.145 1152.92 711.467 1153.73 712.269V712.269Z" fill="white"/>
<path d="M1055.56 571.816L1058.64 574.904L1055.63 574.911C1054.68 574.913 1053.91 575.692 1053.91 576.644L1053.91 578.373C1053.91 579.324 1054.68 580.101 1055.63 580.099L1063.81 580.086L1069.63 585.939L1061.68 588.093L1054.6 583.99C1053.78 583.515 1052.72 583.8 1052.24 584.625L1051.38 586.123C1050.9 586.948 1051.19 588.01 1052.01 588.485L1054.61 589.994L1050.4 591.13C1049.47 591.381 1048.93 592.327 1049.17 593.25L1050.06 596.6C1050.31 597.526 1051.25 598.068 1052.17 597.827L1056.38 596.691L1054.87 599.305C1054.4 600.13 1054.68 601.192 1055.5 601.667L1056.99 602.53C1057.81 603.006 1058.87 602.72 1059.34 601.896L1063.45 594.777L1071.27 592.67L1069.02 601.064L1061.67 605.328C1060.82 605.821 1060.53 606.926 1061.01 607.776L1061.9 609.326C1062.39 610.177 1063.49 610.471 1064.34 609.979L1067.05 608.417L1065.87 612.793C1065.62 613.746 1066.19 614.734 1067.13 614.988L1070.58 615.912C1071.53 616.166 1072.52 615.594 1072.77 614.641L1073.94 610.266L1075.5 612.969C1075.98 613.819 1077.08 614.114 1077.93 613.621L1079.49 612.727C1080.35 612.237 1080.64 611.133 1080.15 610.279L1075.92 602.912L1078.16 594.519L1083.88 600.253L1083.88 608.47C1083.88 609.421 1084.65 610.198 1085.6 610.196L1087.32 610.193C1088.27 610.192 1089.04 609.413 1089.04 608.461L1089.04 605.443L1092.12 608.531C1092.79 609.211 1093.88 609.201 1094.56 608.523L1097.01 606.079C1097.68 605.402 1097.68 604.309 1097 603.63L1093.93 600.541L1096.93 600.534C1097.89 600.536 1098.67 599.757 1098.67 598.794L1098.67 597.065C1098.67 596.113 1097.9 595.337 1096.95 595.339L1088.77 595.351L1082.96 589.512L1090.91 587.359L1097.99 591.461C1098.81 591.936 1099.87 591.651 1100.34 590.827L1101.21 589.329C1101.68 588.504 1101.4 587.442 1100.58 586.967L1097.98 585.458L1102.19 584.311C1103.11 584.059 1103.66 583.113 1103.42 582.191L1102.53 578.84C1102.28 577.915 1101.34 577.373 1100.42 577.614L1096.21 578.749L1097.72 576.136C1098.19 575.311 1097.91 574.249 1097.09 573.774L1095.6 572.91C1094.78 572.435 1093.72 572.72 1093.25 573.545L1089.14 580.664L1081.32 582.771L1083.57 574.377L1090.92 570.112C1091.78 569.623 1092.07 568.518 1091.58 567.665L1090.69 566.114C1090.2 565.264 1089.1 564.969 1088.25 565.462L1085.55 567.026L1086.72 562.662C1086.98 561.709 1086.41 560.721 1085.46 560.467L1082.01 559.542C1081.06 559.288 1080.08 559.86 1079.82 560.813L1078.65 565.188L1077.1 562.486C1076.61 561.635 1075.51 561.341 1074.66 561.833L1073.12 562.731C1072.27 563.223 1071.97 564.328 1072.46 565.178L1076.66 572.537L1074.41 580.93L1068.69 575.196L1068.7 566.979C1068.7 566.027 1067.93 565.251 1066.98 565.252L1065.26 565.255C1064.31 565.257 1063.53 566.036 1063.53 566.987L1063.53 570.006L1060.45 566.917C1059.78 566.238 1058.69 566.248 1058.01 566.925L1055.57 569.38C1054.89 570.046 1054.88 571.148 1055.56 571.816V571.816Z" fill="white"/>
<path d="M1178.3 464.674L1180.76 467.145L1178.36 467.15C1177.6 467.151 1176.98 467.775 1176.98 468.536L1176.98 469.919C1176.98 470.681 1177.6 471.302 1178.36 471.3L1184.9 471.29L1189.55 475.973L1183.19 477.695L1177.53 474.413C1176.87 474.033 1176.03 474.261 1175.65 474.921L1174.96 476.12C1174.58 476.779 1174.8 477.629 1175.46 478.009L1177.54 479.216L1174.17 480.125C1173.43 480.326 1173 481.083 1173.19 481.821L1173.9 484.501C1174.1 485.242 1174.85 485.676 1175.59 485.483L1178.96 484.574L1177.75 486.665C1177.37 487.325 1177.6 488.175 1178.25 488.555L1179.44 489.245C1180.1 489.626 1180.95 489.397 1181.33 488.738L1184.61 483.043L1190.86 481.357L1189.07 488.072L1183.19 491.484C1182.51 491.878 1182.27 492.762 1182.66 493.442L1183.38 494.682C1183.77 495.363 1184.65 495.598 1185.32 495.204L1187.49 493.955L1186.55 497.455C1186.35 498.218 1186.8 499.008 1187.56 499.211L1190.32 499.951C1191.08 500.154 1191.87 499.697 1192.07 498.934L1193.01 495.434L1194.25 497.596C1194.64 498.276 1195.52 498.512 1196.2 498.118L1197.44 497.402C1198.13 497.011 1198.37 496.127 1197.97 495.444L1194.58 489.551L1196.38 482.836L1200.96 487.424L1200.95 493.997C1200.95 494.758 1201.57 495.379 1202.33 495.378L1203.71 495.376C1204.47 495.375 1205.09 494.751 1205.09 493.99L1205.09 491.576L1207.55 494.046C1208.09 494.59 1208.96 494.582 1209.5 494.04L1211.46 492.085C1212 491.543 1211.99 490.668 1211.46 490.125L1208.99 487.654L1211.4 487.649C1212.17 487.65 1212.79 487.026 1212.79 486.257L1212.79 484.873C1212.79 484.112 1212.17 483.491 1211.41 483.492L1204.87 483.502L1200.22 478.831L1206.58 477.108L1212.24 480.39C1212.9 480.77 1213.75 480.542 1214.13 479.882L1214.82 478.684C1215.2 478.024 1214.97 477.175 1214.32 476.795L1212.24 475.587L1215.61 474.67C1216.34 474.468 1216.78 473.712 1216.59 472.974L1215.87 470.293C1215.67 469.553 1214.92 469.119 1214.19 469.312L1210.82 470.221L1212.03 468.13C1212.41 467.47 1212.18 466.62 1211.52 466.24L1210.33 465.549C1209.68 465.169 1208.83 465.397 1208.45 466.057L1205.17 471.752L1198.91 473.438L1200.71 466.723L1206.59 463.311C1207.28 462.919 1207.51 462.036 1207.11 461.353L1206.4 460.113C1206.01 459.432 1205.13 459.196 1204.45 459.59L1202.3 460.842L1203.23 457.35C1203.44 456.588 1202.98 455.798 1202.22 455.594L1199.46 454.855C1198.7 454.652 1197.92 455.109 1197.71 455.872L1196.77 459.372L1195.53 457.21C1195.14 456.529 1194.26 456.294 1193.58 456.688L1192.35 457.406C1191.67 457.799 1191.43 458.683 1191.82 459.364L1195.18 465.25L1193.38 471.965L1188.81 467.378L1188.81 460.804C1188.81 460.043 1188.19 459.422 1187.43 459.423L1186.06 459.425C1185.3 459.426 1184.68 460.05 1184.68 460.811L1184.68 463.225L1182.22 460.755C1181.68 460.211 1180.81 460.219 1180.26 460.761L1178.31 462.725C1177.77 463.258 1177.76 464.139 1178.3 464.674V464.674Z" fill="white"/>
<path d="M1025.9 402.981L1027.78 404.719L1025.99 404.682C1025.42 404.67 1024.97 405.087 1024.98 405.61L1025.01 406.559C1025.02 407.082 1025.49 407.518 1026.06 407.531L1030.94 407.635L1034.48 410.928L1029.77 412.002L1025.5 409.653C1025 409.381 1024.37 409.523 1024.1 409.969L1023.61 410.78C1023.33 411.227 1023.52 411.814 1024.01 412.086L1025.58 412.95L1023.09 413.516C1022.54 413.642 1022.23 414.154 1022.39 414.664L1022.96 416.516C1023.12 417.027 1023.69 417.338 1024.24 417.218L1026.73 416.652L1025.87 418.066C1025.6 418.513 1025.78 419.1 1026.27 419.372L1027.17 419.866C1027.67 420.138 1028.3 419.996 1028.57 419.55L1030.92 415.697L1035.55 414.647L1034.33 419.225L1030 421.466C1029.51 421.725 1029.34 422.328 1029.65 422.802L1030.2 423.665C1030.5 424.139 1031.16 424.315 1031.66 424.057L1033.25 423.236L1032.61 425.623C1032.47 426.142 1032.83 426.693 1033.39 426.845L1035.46 427.4C1036.03 427.552 1036.61 427.252 1036.75 426.732L1037.39 424.345L1038.35 425.85C1038.66 426.324 1039.32 426.501 1039.82 426.242L1040.73 425.772C1041.24 425.515 1041.4 424.912 1041.09 424.437L1038.47 420.334L1039.69 415.756L1043.18 418.982L1043.29 423.494C1043.3 424.017 1043.78 424.454 1044.34 424.466L1045.37 424.488C1045.93 424.5 1046.38 424.083 1046.37 423.56L1046.33 421.903L1048.21 423.64C1048.62 424.023 1049.27 424.032 1049.66 423.669L1051.09 422.361C1051.48 421.998 1051.46 421.398 1051.05 421.015L1049.18 419.278L1050.97 419.315C1051.54 419.329 1051.99 418.911 1051.98 418.383L1051.96 417.434C1051.94 416.911 1051.47 416.474 1050.91 416.462L1046.03 416.358L1042.49 413.072L1047.2 411.998L1051.47 414.347C1051.97 414.619 1052.6 414.477 1052.87 414.031L1053.36 413.22C1053.64 412.774 1053.45 412.187 1052.96 411.915L1051.39 411.05L1053.88 410.478C1054.43 410.353 1054.74 409.841 1054.59 409.331L1054.01 407.479C1053.85 406.967 1053.28 406.657 1052.73 406.776L1050.24 407.343L1051.1 405.928C1051.37 405.482 1051.19 404.895 1050.7 404.623L1049.8 404.128C1049.3 403.856 1048.67 403.998 1048.4 404.444L1046.05 408.298L1041.42 409.348L1042.64 404.77L1046.97 402.528C1047.47 402.271 1047.63 401.668 1047.33 401.193L1046.77 400.329C1046.47 399.856 1045.81 399.679 1045.31 399.938L1043.73 400.76L1044.36 398.379C1044.5 397.86 1044.15 397.309 1043.58 397.157L1041.51 396.602C1040.94 396.45 1040.36 396.75 1040.22 397.27L1039.58 399.657L1038.62 398.152C1038.32 397.678 1037.66 397.501 1037.16 397.76L1036.25 398.232C1035.75 398.491 1035.59 399.093 1035.89 399.567L1038.5 403.665L1037.27 408.243L1033.78 405.016L1033.67 400.504C1033.66 399.982 1033.19 399.545 1032.62 399.533L1031.6 399.511C1031.03 399.499 1030.58 399.916 1030.59 400.439L1030.63 402.096L1028.76 400.358C1028.35 399.976 1027.7 399.966 1027.3 400.329L1025.87 401.644C1025.48 402 1025.49 402.605 1025.9 402.981V402.981Z" fill="white"/>
<path d="M1268.22 595.286L1269.47 596.445L1268.27 596.42C1267.9 596.412 1267.6 596.69 1267.6 597.039L1267.62 597.672C1267.63 598.02 1267.94 598.311 1268.32 598.319L1271.57 598.389L1273.94 600.584L1270.8 601.3L1267.94 599.734C1267.61 599.553 1267.2 599.648 1267.01 599.945L1266.68 600.486C1266.5 600.783 1266.63 601.175 1266.96 601.356L1268 601.932L1266.34 602.31C1265.98 602.393 1265.77 602.735 1265.87 603.075L1266.26 604.309C1266.36 604.65 1266.74 604.857 1267.11 604.777L1268.77 604.4L1268.19 605.343C1268.01 605.641 1268.13 606.032 1268.46 606.213L1269.06 606.543C1269.39 606.724 1269.81 606.63 1269.99 606.332L1271.56 603.763L1274.65 603.063L1273.83 606.115L1270.95 607.61C1270.62 607.782 1270.51 608.184 1270.71 608.5L1271.08 609.075C1271.28 609.391 1271.72 609.509 1272.05 609.337L1273.12 608.789L1272.69 610.381C1272.6 610.727 1272.83 611.094 1273.21 611.196L1274.59 611.565C1274.97 611.667 1275.36 611.467 1275.45 611.12L1275.88 609.529L1276.52 610.532C1276.72 610.848 1277.16 610.966 1277.49 610.793L1278.1 610.48C1278.44 610.309 1278.55 609.907 1278.34 609.59L1276.59 606.855L1277.41 603.803L1279.74 605.954L1279.81 608.962C1279.82 609.31 1280.13 609.601 1280.51 609.609L1281.19 609.624C1281.57 609.632 1281.87 609.354 1281.86 609.006L1281.83 607.901L1283.09 609.059C1283.36 609.314 1283.79 609.32 1284.06 609.078L1285.01 608.206C1285.27 607.964 1285.26 607.564 1284.98 607.309L1283.73 606.151L1284.93 606.175C1285.31 606.185 1285.61 605.906 1285.6 605.554L1285.59 604.921C1285.58 604.573 1285.26 604.282 1284.89 604.274L1281.63 604.204L1279.27 602.013L1282.41 601.297L1285.26 602.864C1285.59 603.045 1286.01 602.95 1286.19 602.653L1286.52 602.112C1286.7 601.815 1286.58 601.423 1286.25 601.242L1285.21 600.666L1286.87 600.284C1287.23 600.201 1287.44 599.859 1287.34 599.519L1286.95 598.285C1286.85 597.944 1286.47 597.737 1286.1 597.816L1284.44 598.194L1285.02 597.251C1285.2 596.953 1285.08 596.562 1284.75 596.381L1284.15 596.051C1283.81 595.869 1283.4 595.964 1283.22 596.262L1281.65 598.831L1278.56 599.531L1279.38 596.479L1282.26 594.984C1282.6 594.813 1282.7 594.411 1282.5 594.094L1282.13 593.518C1281.93 593.203 1281.49 593.085 1281.15 593.257L1280.1 593.806L1280.52 592.218C1280.62 591.872 1280.38 591.505 1280 591.403L1278.62 591.034C1278.24 590.932 1277.86 591.132 1277.76 591.479L1277.34 593.07L1276.7 592.067C1276.49 591.751 1276.05 591.633 1275.72 591.806L1275.11 592.12C1274.78 592.293 1274.67 592.694 1274.88 593.01L1276.61 595.742L1275.79 598.794L1273.47 596.643L1273.4 593.635C1273.39 593.287 1273.07 592.995 1272.7 592.987L1272.01 592.973C1271.63 592.965 1271.33 593.243 1271.34 593.591L1271.37 594.696L1270.12 593.538C1269.84 593.283 1269.41 593.276 1269.15 593.518L1268.2 594.395C1267.93 594.632 1267.94 595.035 1268.22 595.286V595.286Z" fill="white"/>
</g>
</svg>
